<?xml version="1.0" encoding="UTF-8"?>
<svg width="193px" height="64px" viewBox="0 0 193 64" version="1.1" xmlns="http://www.w3.org/2000/svg" xmlns:xlink="http://www.w3.org/1999/xlink">
    <title>Group 2</title>
    <g id="Page-1" stroke="none" stroke-width="1" fill="none" fill-rule="evenodd">
        <g id="Artboard" transform="translate(-243.000000, -192.000000)">
            <g id="Group-2" transform="translate(243.333333, 192.000000)">
                <rect id="Rectangle" x="0" y="0" width="192" height="64"></rect>
                <g id="Group" transform="translate(2.666667, 0.150984)" fill-rule="nonzero">
                    <path d="M29.7201547,62.0019788 C28.9725081,61.5700096 28.339884,60.9652527 27.9948163,60.3316979 L1.13704841,13.7366205 C0.676958171,12.9878739 0.648202531,12.2103293 1.02202585,11.5767745 C1.05078149,11.5479765 1.05078149,11.5191786 1.05078149,11.5191786 L6.77315388,1.58388706 C6.80190952,1.52629116 6.80190952,1.49749322 6.8594208,1.46869527 C7.26199976,0.950332234 7.8658682,0.691150716 8.67102613,0.691150716 L154.749678,0.691150716 C155.497325,0.691150716 156.302483,0.921534287 157.078885,1.38230143 C157.826531,1.81427063 158.459156,2.4190275 158.804223,3.05258233 L185.661991,49.6476597 C186.093326,50.3964063 186.150837,51.1739509 185.805769,51.7787078 C185.777014,51.8363037 185.748258,51.8651016 185.719502,51.9226975 L180.169664,61.5700096 C180.112153,61.7139993 180.054641,61.8291911 179.939619,61.9443829 C179.565795,62.433948 178.904416,62.6931295 178.156769,62.6643315 L32.0781172,62.6643315 C31.3017149,62.6931295 30.496557,62.433948 29.7201547,62.0019788 Z" id="Path" fill="#E1F2FC"></path>
                    <path d="M156.705061,2.01585625 C157.337686,2.39022956 157.884043,2.8509967 158.200355,3.39815768 L185.058123,49.9932351 C185.374435,50.5403961 185.40319,51.0299612 185.173145,51.4043345 C185.14439,51.4619304 185.115634,51.4907283 185.086878,51.5195263 L179.479528,61.2532322 C179.450773,61.339626 179.393262,61.4260198 179.33575,61.5124137 C179.105705,61.8003931 178.703126,61.9731808 178.128013,61.9731808 L32.0206059,61.9443829 C31.3879818,61.9443829 30.6690908,61.7427973 30.0652224,61.3684239 C29.4325983,60.9940506 28.8862411,60.5332835 28.5699291,59.9861225 L1.71216122,13.3622472 C1.39584917,12.7862882 1.36709353,12.2391273 1.6258943,11.8935519 L7.34826668,1.95826036 C7.5783118,1.612685 8.0096464,1.41109938 8.61351485,1.43989732 L154.692167,1.43989732 C155.353546,1.43989732 156.072437,1.64148295 156.705061,2.01585625 Z M157.423952,0.777544555 C156.561283,0.259181518 155.612347,0 154.749678,0 L8.64227049,0 C7.66457872,0 6.80190952,0.374373304 6.284308,1.03672607 C6.19804108,1.12311991 6.16928544,1.20951375 6.11177415,1.26710965 L0.38940177,11.2024012 C0.36064613,11.2311991 0.36064613,11.2599971 0.33189049,11.288795 C-0.128199752,12.1239355 -0.128199752,13.1606615 0.44691305,14.1109938 L27.3046809,60.7060712 C27.7360155,61.4548178 28.4549065,62.1171706 29.3175757,62.6355336 C30.1802449,63.1538966 31.1291811,63.4130781 31.9918503,63.4130781 L178.070502,63.4130781 C179.048194,63.4130781 179.882107,63.0675028 180.399709,62.40515 C180.514732,62.2323623 180.629754,62.0595747 180.716021,61.9155849 L186.237104,52.3258688 C186.26586,52.2394749 186.323371,52.210677 186.323371,52.1530811 C186.812217,51.3179406 186.783461,50.2812146 186.208348,49.3308823 L159.408092,2.67820902 C159.005513,1.92946241 158.257866,1.26710965 157.423952,0.777544555 Z" id="Shape" fill="#000000"></path>
                    <path d="M8.64227049,1.43989732 L154.720922,1.43989732 C155.98617,1.43989732 157.538975,2.33263366 158.171599,3.42695563 L185.029367,50.022033 C185.345679,50.569194 185.374435,51.0587591 185.14439,51.4331324 C184.914344,51.8075057 184.48301,52.0090913 183.850386,52.0090913 L37.8004896,51.9802934 C36.5352414,51.9802934 34.9824368,51.0875571 34.3498128,49.9932351 L7.49204488,3.39815768 C6.8594208,2.30383572 7.37702232,1.43989732 8.64227049,1.43989732 Z" id="Path" fill="#FFFFFF"></path>
                    <path d="M24.7166733,9.27293877 L38.5193806,9.27293877 C39.7846287,9.27293877 41.3374333,10.1656751 41.9700574,11.2599971 L48.8138997,23.153549 C49.4465238,24.2478709 48.9289223,25.1406073 47.6636741,25.1406073 L33.8609669,25.1406073 C32.5957187,25.1406073 31.0429141,24.2478709 30.4102901,23.153549 L23.5664477,11.2599971 C22.905068,10.1656751 23.3939139,9.30173671 24.7166733,9.27293877 Z" id="Path" fill="#E6E6E6"></path>
                    <path d="M68.3964907,9.27293877 L82.1991979,9.27293877 C83.4644461,9.27293877 85.0172507,10.1656751 85.6498747,11.2599971 L92.4937171,23.153549 C93.1263412,24.2478709 92.6087396,25.1406073 91.3434915,25.1406073 L77.5407842,25.1406073 C76.2755361,25.1406073 74.7227315,24.2478709 74.0901074,23.153549 L67.2462651,11.2599971 C66.613641,10.1656751 67.1312425,9.30173671 68.3964907,9.27293877 Z" id="Path" fill="#E6E6E6"></path>
                    <path d="M112.105064,9.27293877 L125.907771,9.27293877 C127.173019,9.27293877 128.725824,10.1656751 129.358448,11.2599971 L136.20229,23.153549 C136.834914,24.2478709 136.317313,25.1406073 135.052064,25.1406073 L121.249357,25.1406073 C119.984109,25.1406073 118.431304,24.2478709 117.79868,23.153549 L110.954838,11.2599971 C110.322214,10.1656751 110.839815,9.30173671 112.105064,9.27293877 Z" id="Path" fill="#E6E6E6"></path>
                    <path d="M46.5709598,9.27293877 L60.3736671,9.27293877 C61.6389152,9.27293877 63.1917198,10.1656751 63.8243439,11.2599971 L70.6394306,23.1823469 C71.2720547,24.2766689 70.7544532,25.1694052 69.489205,25.1694052 L55.6864977,25.1694052 C54.4212496,25.1694052 52.868445,24.2766689 52.2358209,23.1823469 L45.4207342,11.288795 C44.7593545,10.1656751 45.2482004,9.30173671 46.5709598,9.27293877 Z" id="Path" fill="#E6E6E6"></path>
                    <path d="M90.2507772,9.27293877 L104.053484,9.27293877 C105.318733,9.27293877 106.871537,10.1656751 107.504161,11.2599971 L114.348004,23.153549 C114.980628,24.2478709 114.463026,25.1406073 113.197778,25.1406073 L99.3950707,25.1406073 C98.1298226,25.1406073 96.577018,24.2478709 95.9443939,23.153549 L89.1005516,11.2599971 C88.4679275,10.1656751 88.985529,9.30173671 90.2507772,9.27293877 Z" id="Path" fill="#E6E6E6"></path>
                    <path d="M150.637621,4.29089403 L150.637621,5.73079135 L150.637621,5.73079135 L150.637621,4.29089403 Z M154.088298,6.27795233 L152.851806,6.99790099 L152.851806,6.99790099 L154.088298,6.27795233 Z M136.834914,4.29089403 L136.834914,2.8509967 L136.834914,2.8509967 L136.834914,4.29089403 Z M135.54091,4.86685296 L134.304418,4.14690429 L134.304418,4.14690429 L135.54091,4.86685296 Z M135.54091,4.86685296 L134.304418,4.14690429 L134.304418,4.14690429 L135.54091,4.86685296 Z M132.665346,9.87769564 L131.428854,9.15774698 C131.026275,9.8488977 131.25632,10.7128361 131.946455,11.1160073 L132.665346,9.87769564 Z M132.665346,9.87769564 L133.930595,10.5688464 C134.304418,9.87769564 134.074373,9.01375725 133.384237,8.610586 L132.665346,9.87769564 Z M132.809125,11.2599971 L131.572632,11.9799457 L131.572632,11.9799457 L132.809125,11.2599971 Z M139.652967,23.124751 L139.652967,24.5646483 C140.170568,24.5646483 140.630659,24.2766689 140.889459,23.8446997 C141.14826,23.4127305 141.14826,22.8367716 140.889459,22.4048024 L139.652967,23.124751 Z M136.20229,23.124751 L136.20229,21.6848537 L136.20229,21.6848537 L136.20229,23.124751 Z M135.052064,25.1406073 L133.815572,25.8605559 L133.815572,25.8605559 L135.052064,25.1406073 Z M136.777403,28.1355937 L136.777403,29.575491 C137.295004,29.575491 137.755095,29.2875116 138.013895,28.8555424 C138.272696,28.4235732 138.272696,27.8476142 138.013895,27.415645 L136.777403,28.1355937 Z M133.326726,28.1355937 L133.326726,26.6956964 L133.326726,26.6956964 L133.326726,28.1355937 Z M132.1765,30.122652 L130.940008,30.8426007 L130.940008,30.8426007 L132.1765,30.122652 Z M139.020343,42.0162039 L140.256835,41.2962553 L140.256835,41.2962553 L139.020343,42.0162039 Z M142.47102,44.0032622 L142.47102,42.5633649 L142.47102,42.5633649 L142.47102,44.0032622 Z M151.672824,43.9744643 L151.672824,42.534567 L151.672824,42.534567 L151.672824,43.9744643 Z M167.775983,43.9744643 L167.775983,45.4143616 L167.775983,45.4143616 L167.775983,43.9744643 Z M168.926209,41.987406 L170.162701,41.2674573 L170.162701,41.2674573 L168.926209,41.987406 Z M167.20087,38.9924195 L167.20087,37.5525222 C166.683269,37.5525222 166.223178,37.8405017 165.964378,38.2724709 C165.705577,38.7044401 165.705577,39.280399 165.964378,39.7123682 L167.20087,38.9924195 Z M170.651547,38.9924195 L170.651547,40.4323169 L170.651547,40.4323169 L170.651547,38.9924195 Z M171.801773,37.0053612 L173.038265,36.2854126 L173.038265,36.2854126 L171.801773,37.0053612 Z M163.778949,23.124751 L162.542456,23.8446997 L162.542456,23.8446997 L163.778949,23.124751 Z M150.637621,5.73079135 C150.953933,5.73079135 151.414024,5.84598314 151.874114,6.1339626 C152.334204,6.39314412 152.679272,6.73871948 152.82305,6.99790099 L155.324791,5.55800367 C154.864701,4.75166117 154.088298,4.0893084 153.311896,3.62854126 C152.535494,3.16777411 151.586558,2.8509967 150.637621,2.8509967 L150.637621,5.73079135 Z M136.834914,5.73079135 L150.637621,5.73079135 L150.637621,2.8509967 L136.834914,2.8509967 L136.834914,5.73079135 Z M136.777403,5.61559956 C136.748647,5.67319546 136.719892,5.7019934 136.691136,5.73079135 C136.66238,5.7595893 136.633625,5.7595893 136.633625,5.7595893 C136.633625,5.7595893 136.66238,5.73079135 136.834914,5.73079135 L136.834914,2.8509967 C135.885978,2.8509967 134.850775,3.19657206 134.304418,4.14690429 L136.777403,5.61559956 Z M136.806159,5.58680162 C136.806159,5.58680162 136.806159,5.58680162 136.806159,5.58680162 C136.806159,5.58680162 136.806159,5.58680162 136.806159,5.58680162 C136.806159,5.58680162 136.806159,5.58680162 136.806159,5.58680162 C136.806159,5.58680162 136.806159,5.58680162 136.806159,5.58680162 L134.333173,4.14690429 C134.333173,4.14690429 134.333173,4.14690429 134.333173,4.14690429 C134.333173,4.14690429 134.333173,4.14690429 134.333173,4.14690429 C134.333173,4.14690429 134.333173,4.14690429 134.333173,4.14690429 C134.333173,4.14690429 134.333173,4.14690429 134.333173,4.14690429 C134.333173,4.14690429 134.333173,4.14690429 134.333173,4.14690429 C134.333173,4.14690429 134.333173,4.14690429 134.333173,4.14690429 L136.806159,5.58680162 Z M136.806159,5.58680162 C136.806159,5.58680162 136.806159,5.58680162 136.806159,5.58680162 C136.806159,5.58680162 136.806159,5.58680162 136.806159,5.58680162 L134.304418,4.14690429 C134.304418,4.14690429 134.304418,4.14690429 134.304418,4.14690429 C134.304418,4.14690429 134.304418,4.14690429 134.304418,4.14690429 L136.806159,5.58680162 Z M133.930595,10.5688464 L136.806159,5.58680162 L134.304418,4.14690429 L131.428854,9.12894903 L133.930595,10.5688464 Z M133.930595,10.5688464 C133.930595,10.5688464 133.930595,10.5688464 133.930595,10.5688464 C133.930595,10.5688464 133.930595,10.5688464 133.930595,10.5688464 L131.428854,9.12894903 C131.428854,9.12894903 131.428854,9.12894903 131.428854,9.12894903 C131.428854,9.12894903 131.428854,9.12894903 131.428854,9.12894903 L133.930595,10.5688464 Z M133.901839,10.5976443 L133.901839,10.5976443 L131.428854,9.12894903 L131.428854,9.15774698 L133.901839,10.5976443 Z M133.384237,8.63938394 L133.384237,8.63938394 L131.946455,11.1448053 L131.946455,11.1448053 L133.384237,8.63938394 Z M134.045617,10.5400484 C133.95935,10.4248566 133.95935,10.3384628 133.95935,10.3672607 C133.95935,10.3672607 133.95935,10.3960587 133.95935,10.4248566 C133.95935,10.4536546 133.930595,10.5112505 133.901839,10.5688464 L131.400098,9.18654493 C130.882497,10.1368772 131.083786,11.2024012 131.543876,12.0087437 L134.045617,10.5400484 Z M140.889459,22.4048024 L134.045617,10.5400484 L131.543876,11.9799457 L138.387719,23.8446997 L140.889459,22.4048024 Z M136.20229,24.5646483 L139.652967,24.5646483 L139.652967,21.6848537 L136.20229,21.6848537 L136.20229,24.5646483 Z M136.288557,24.4206586 C136.20229,24.2766689 136.20229,24.219073 136.20229,24.2478709 C136.20229,24.2478709 136.20229,24.2766689 136.20229,24.3342648 C136.20229,24.3630627 136.173534,24.4206586 136.144779,24.4782545 C136.116023,24.5358504 136.087268,24.5646483 136.058512,24.5934463 C136.029756,24.6222442 136.001001,24.6222442 136.001001,24.6222442 C136.001001,24.6222442 136.029756,24.5934463 136.20229,24.5934463 L136.20229,21.7136516 C135.253354,21.7136516 134.218151,22.059227 133.671794,23.0095592 C133.125437,23.9598915 133.326726,25.0254155 133.815572,25.8605559 L136.288557,24.4206586 Z M138.013895,27.415645 L136.288557,24.4206586 L133.786816,25.8605559 L135.512155,28.8555424 L138.013895,27.415645 Z M133.326726,29.575491 L136.777403,29.575491 L136.777403,26.6956964 L133.326726,26.6956964 L133.326726,29.575491 Z M133.412993,29.4027034 C133.326726,29.2587136 133.326726,29.2011177 133.326726,29.2299157 C133.326726,29.2299157 133.326726,29.2587136 133.326726,29.3163095 C133.326726,29.3451075 133.29797,29.4027034 133.269215,29.4602992 C133.240459,29.5178951 133.211704,29.5466931 133.182948,29.575491 C133.154192,29.604289 133.125437,29.604289 133.125437,29.604289 C133.125437,29.604289 133.154192,29.575491 133.326726,29.575491 L133.326726,26.6956964 C132.37779,26.6956964 131.342587,27.0412717 130.79623,27.991604 C130.249873,28.9419362 130.451162,30.0074602 130.940008,30.8426007 L133.412993,29.4027034 Z M140.285591,41.2674573 L133.412993,29.3739054 L130.911252,30.8138027 L137.78385,42.7073546 L140.285591,41.2674573 Z M142.47102,42.5633649 C142.154708,42.5633649 141.694617,42.4481731 141.234527,42.1601936 C140.774437,41.9010121 140.429369,41.5554368 140.285591,41.2962553 L137.78385,42.7361526 C138.243941,43.5424951 139.020343,44.2048478 139.796745,44.665615 C140.573147,45.1263821 141.522084,45.4431595 142.47102,45.4431595 L142.47102,42.5633649 Z M151.672824,42.534567 L142.47102,42.534567 L142.47102,45.4143616 L151.672824,45.4143616 L151.672824,42.534567 Z M167.775983,42.534567 L151.672824,42.534567 L151.672824,45.4143616 L167.775983,45.4143616 L167.775983,42.534567 Z M167.66096,42.7073546 C167.747227,42.8513444 167.747227,42.9089403 167.747227,42.8801423 C167.747227,42.8801423 167.747227,42.8513444 167.747227,42.7937485 C167.747227,42.7649505 167.775983,42.7073546 167.804739,42.6497587 C167.833494,42.5921628 167.86225,42.5633649 167.891005,42.534567 C167.919761,42.505769 167.948517,42.505769 167.948517,42.505769 C167.948517,42.505769 167.919761,42.534567 167.747227,42.534567 L167.747227,45.4143616 C168.696163,45.4143616 169.731366,45.0687862 170.277724,44.118454 C170.824081,43.1681218 170.622791,42.1025978 170.133945,41.2674573 L167.66096,42.7073546 Z M165.935622,39.7123682 L167.66096,42.7073546 L170.162701,41.2674573 L168.437363,38.2724709 L165.935622,39.7123682 Z M170.651547,37.5525222 L167.20087,37.5525222 L167.20087,40.4323169 L170.651547,40.4323169 L170.651547,37.5525222 Z M170.536524,37.7253099 C170.622791,37.8692996 170.622791,37.9268955 170.622791,37.8980976 C170.622791,37.8980976 170.622791,37.8692996 170.622791,37.8117037 C170.622791,37.7829058 170.651547,37.7253099 170.680303,37.667714 C170.709058,37.6101181 170.737814,37.5813202 170.76657,37.5525222 C170.795325,37.5237243 170.824081,37.5237243 170.824081,37.5237243 C170.824081,37.5237243 170.795325,37.5525222 170.622791,37.5525222 L170.622791,40.4323169 C171.571727,40.4323169 172.60693,40.0867415 173.153288,39.1364093 C173.699645,38.186077 173.498355,37.120553 173.009509,36.2854126 L170.536524,37.7253099 Z M162.542456,23.8446997 L170.536524,37.7253099 L173.038265,36.2854126 L165.044197,22.4048024 L162.542456,23.8446997 Z M152.82305,6.99790099 L162.542456,23.8446997 L165.044197,22.4048024 L155.324791,5.55800367 L152.82305,6.99790099 Z" id="Shape" fill="#000000"></path>
                    <path d="M154.088298,6.27795233 C153.455674,5.18363037 151.90287,4.29089403 150.637621,4.29089403 L136.834914,4.29089403 C136.20229,4.29089403 135.770955,4.5212776 135.54091,4.86685296 C135.54091,4.86685296 135.54091,4.86685296 135.54091,4.86685296 C135.54091,4.86685296 135.54091,4.86685296 135.54091,4.86685296 L132.665346,9.8488977 C132.665346,9.8488977 132.665346,9.8488977 132.665346,9.8488977 L132.665346,9.87769564 L132.665346,9.87769564 C132.464057,10.2520689 132.492813,10.741634 132.809125,11.2599971 L139.652967,23.124751 L136.20229,23.124751 C134.937042,23.124751 134.41944,24.0174874 135.052064,25.1118093 L136.777403,28.1067958 L133.326726,28.1067958 C132.061478,28.1067958 131.543876,28.9995321 132.1765,30.0938541 L139.049098,41.987406 C139.681723,43.0817279 141.234527,43.9744643 142.499775,43.9744643 L151.70158,43.9744643 L167.804739,43.9744643 C169.069987,43.9744643 169.587588,43.0817279 168.954964,41.987406 L167.229626,38.9924195 L170.680303,38.9924195 C171.945551,38.9924195 172.463152,38.0996832 171.830528,37.0053612 L163.778949,23.124751 L154.088298,6.27795233 Z" id="Path" fill="#E1F2FC"></path>
                    <path d="M128.783335,4.31969197 L128.783335,5.7595893 L128.783335,5.7595893 L128.783335,4.31969197 Z M114.980628,4.31969197 L114.980628,5.7595893 C114.980628,5.7595893 114.980628,5.7595893 114.980628,5.7595893 L114.980628,4.31969197 Z M132.234012,6.30675028 L130.997519,7.02669894 L130.997519,7.02669894 L132.234012,6.30675028 Z M139.077854,18.2003022 L140.314347,17.4803535 L140.314347,17.4803535 L139.077854,18.2003022 Z M139.192877,19.6401995 L137.98514,18.8626549 C137.98514,18.8914529 137.956384,18.8914529 137.956384,18.9202508 L139.192877,19.6401995 Z M136.374824,24.5646483 L135.138331,23.8446997 C135.138331,23.8734976 135.109576,23.8734976 135.109576,23.9022956 L136.374824,24.5646483 Z M135.052064,25.1694052 L135.052064,26.6093025 L135.052064,26.6093025 L135.052064,25.1694052 Z M121.249357,25.1694052 L121.249357,23.7295079 L121.249357,23.7295079 L121.249357,25.1694052 Z M117.827436,23.1823469 L119.063929,22.4623983 L119.063929,22.4623983 L117.827436,23.1823469 Z M110.954838,11.288795 L112.191331,10.5688464 C112.191331,10.5688464 112.162575,10.5400484 112.162575,10.5400484 L110.954838,11.288795 Z M110.839815,9.82009975 L112.047552,10.6264423 C112.277597,10.2808669 112.335109,9.87769564 112.248842,9.50332234 C112.162575,9.12894903 111.903774,8.78337368 111.558706,8.58178805 L110.839815,9.82009975 Z M110.839815,9.82009975 L109.603323,9.10015109 C109.200744,9.7913018 109.430789,10.6552402 110.120924,11.0584114 L110.839815,9.82009975 Z M113.686624,4.83805501 L114.405515,3.59974331 C113.715379,3.19657206 112.85271,3.42695563 112.450131,4.11810635 L113.686624,4.83805501 Z M113.71538,4.83805501 L112.996488,6.07636671 C113.657868,6.45074001 114.491782,6.24915439 114.923116,5.61559956 L113.71538,4.83805501 Z M128.783335,2.87979465 L114.980628,2.87979465 L114.980628,5.7595893 L128.783335,5.7595893 L128.783335,2.87979465 Z M133.470504,5.58680162 C133.010414,4.78045912 132.234012,4.11810635 131.457609,3.6573392 C130.681207,3.19657206 129.732271,2.87979465 128.783335,2.87979465 L128.783335,5.7595893 C129.099647,5.7595893 129.559737,5.87478108 130.019827,6.16276055 C130.479918,6.42194207 130.824985,6.76751742 130.968764,7.02669894 L133.470504,5.58680162 Z M140.343102,17.4803535 L133.470504,5.58680162 L130.968764,7.02669894 L137.841362,18.9202508 L140.343102,17.4803535 Z M140.429369,20.3889461 C141.033238,19.4098159 140.831948,18.315494 140.343102,17.4515556 L137.841362,18.8914529 C137.927628,19.0354426 137.927628,19.0930385 137.927628,19.0642406 C137.927628,19.0642406 137.927628,19.0354426 137.927628,18.9778467 C137.927628,18.9202508 137.898873,19.3472774 137.927628,19.2896815 L140.429369,20.3889461 Z M137.611316,25.284597 L140.458125,20.3601482 L137.956384,18.9202508 L135.109576,23.8446997 L137.611316,25.284597 Z M135.08082,23.8734976 C135.109576,23.8159017 135.138331,23.7871038 135.167087,23.7583058 C135.195843,23.7295079 135.224598,23.70071 135.224598,23.70071 C135.253354,23.70071 135.195843,23.7295079 135.023309,23.7295079 L135.023309,26.6093025 C136.001001,26.6093025 137.064959,26.2349292 137.582561,25.2270011 L135.08082,23.8734976 Z M135.052064,23.7295079 L121.249357,23.7295079 L121.249357,26.6093025 L135.052064,26.6093025 L135.052064,23.7295079 Z M121.249357,23.7295079 C120.933045,23.7295079 120.472955,23.6143161 120.012865,23.3263366 C119.552774,23.0671551 119.207707,22.7215798 119.063929,22.4623983 L116.562188,23.9022956 C117.022278,24.7086381 117.79868,25.3709908 118.575083,25.831758 C119.351485,26.2925251 120.300421,26.6093025 121.249357,26.6093025 L121.249357,23.7295079 Z M119.063929,22.4623983 L112.220086,10.5688464 L109.718346,12.0087437 L116.562188,23.9022956 L119.063929,22.4623983 Z M112.191331,10.5112505 C112.105064,10.3672607 112.105064,10.3096648 112.105064,10.3384628 C112.105064,10.3672607 112.105064,10.3960587 112.105064,10.4536546 C112.105064,10.5112505 112.076308,10.5688464 112.047552,10.6264423 L109.632079,9.04255519 C108.970699,10.0504833 109.2295,11.2024012 109.747101,12.0375416 L112.191331,10.5112505 Z M110.120924,11.0872094 L110.120924,11.0872094 L111.558706,8.58178805 L111.558706,8.58178805 L110.120924,11.0872094 Z M112.450131,4.11810635 L109.574567,9.10015109 L112.076308,10.5400484 L114.951872,5.55800367 L112.450131,4.11810635 Z M114.434271,3.59974331 L114.434271,3.59974331 L112.996488,6.10516465 L112.996488,6.10516465 L114.434271,3.59974331 Z M115.009383,2.87979465 C114.117958,2.87979465 113.111511,3.16777411 112.507643,4.06051045 L114.923116,5.64439751 C114.894361,5.7019934 114.865605,5.73079135 114.836849,5.7595893 C114.808094,5.78838724 114.779338,5.78838724 114.779338,5.78838724 C114.779338,5.78838724 114.836849,5.7595893 114.980628,5.7595893 L115.009383,2.87979465 Z" id="Shape" fill="#000000"></path>
                    <path d="M114.980628,4.31969197 L128.783335,4.31969197 C130.048583,4.31969197 131.601388,5.21242831 132.234012,6.30675028 L139.10661,18.2003022 C139.422922,18.7762611 139.451677,19.2658262 139.221632,19.6401995 L136.374824,24.5646483 C136.173534,24.9390217 135.713444,25.1694052 135.08082,25.1694052 L121.278113,25.1694052 C120.012865,25.1694052 118.46006,24.2766689 117.827436,23.1823469 L110.983594,11.288795 C110.638526,10.7128361 110.60977,10.1944731 110.839815,9.8488977 L110.839815,9.8488977 L113.71538,4.86685296 L113.71538,4.86685296 C113.916669,4.5212776 114.348004,4.31969197 114.980628,4.31969197 Z" id="Path" fill="#E1F2FC"></path>
                    <path d="M134.822019,23.671912 C133.95935,25.1694052 133.096681,25.2270011 133.786816,27.1276656 C132.147745,26.1773334 132.722858,24.6510422 133.585527,23.153549 C134.448196,21.6560558 136.489846,21.2240866 138.128918,22.1744188 C139.767989,23.124751 135.684689,22.1744188 134.822019,23.671912 Z" id="Path" fill="#000000"></path>
                    <path d="M143.189911,21.6848537 C143.586943,21.6848537 143.908802,22.1325689 143.908802,22.6848537 C143.908802,23.2150471 143.612177,23.6488692 143.237178,23.6827266 L143.189911,23.6848537 L136.317313,23.6848537 C135.92028,23.6848537 135.598422,23.2371384 135.598422,22.6848537 C135.598422,22.1546603 135.895046,21.7208382 136.270045,21.6869808 L136.317313,21.6848537 L143.189911,21.6848537 Z" id="Path" fill="#000000"></path>
                    <path d="M132.061478,28.6539567 L133.269215,29.4315013 C133.29797,29.4027034 133.29797,29.3739054 133.326726,29.3739054 L132.061478,28.6539567 Z M134.90908,23.7871038 L135.627971,22.5487921 C134.937835,22.1456208 133.988106,22.3472065 133.614282,23.0383572 L134.90908,23.7871038 Z M132.1765,30.122652 L130.940008,30.8426007 L130.940008,30.8426007 L132.1765,30.122652 Z M139.020343,42.0162039 L140.256835,41.2962553 L140.256835,41.2962553 L139.020343,42.0162039 Z M142.47102,44.0032622 L142.47102,42.5633649 L142.47102,42.5633649 L142.47102,44.0032622 Z M151.672824,43.9744643 L151.672824,42.534567 L151.672824,42.534567 L151.672824,43.9744643 Z M167.775983,43.9744643 L167.775983,45.4143616 L167.775983,45.4143616 L167.775983,43.9744643 Z M168.98372,43.4848992 L169.702611,42.2465875 C169.069987,41.8722142 168.264829,42.0450019 167.833494,42.6497587 L168.98372,43.4848992 Z M169.012475,43.4848992 L168.293584,44.7232109 C168.609896,44.9247965 169.012475,44.9535945 169.386299,44.8672006 C169.760122,44.7808068 170.076434,44.5216253 170.248968,44.2048478 L169.012475,43.4848992 Z M171.859284,38.5028544 L173.095776,39.2228031 C173.498355,38.5316524 173.26831,37.667714 172.578175,37.2645427 L171.859284,38.5028544 Z M164.986686,34.5287378 L165.705577,33.2904261 C165.389265,33.0888405 164.986686,33.0600426 164.612863,33.1464364 C164.239039,33.2328302 163.922727,33.4920118 163.750193,33.8087892 L164.986686,34.5287378 Z M164.785396,34.8455152 L163.548904,35.5654639 C163.807705,35.9974331 164.267795,36.2854126 164.785396,36.2854126 C165.302998,36.2854126 165.763088,35.9974331 166.021889,35.5654639 L164.785396,34.8455152 Z M160.903385,28.1067958 L162.139877,27.3868471 C161.881077,26.9548779 161.420986,26.6668984 160.903385,26.6668984 L160.903385,28.1067958 Z M141.550839,28.1355937 L140.314347,27.415645 C140.055546,27.8476142 140.055546,28.4235732 140.314347,28.8555424 C140.573147,29.2875116 141.033238,29.575491 141.550839,29.575491 L141.550839,28.1355937 Z M141.780884,27.7612204 L143.017377,28.4811691 C143.419956,27.7900184 143.189911,26.92608 142.499775,26.5229087 L141.780884,27.7612204 Z M133.29797,29.3739054 L136.116023,24.4782545 L133.614282,23.0383572 L130.79623,27.9340081 L133.29797,29.3739054 Z M133.412993,29.4027034 C133.326726,29.2587136 133.326726,29.2011177 133.326726,29.2299157 C133.326726,29.2299157 133.326726,29.2587136 133.326726,29.3163095 C133.326726,29.3739054 133.29797,29.4027034 133.269215,29.4602992 L130.853741,27.8764122 C130.221117,28.8555424 130.422406,29.9786623 130.911252,30.8426007 L133.412993,29.4027034 Z M140.285591,41.2674573 L133.412993,29.3739054 L130.911252,30.8138027 L137.78385,42.7073546 L140.285591,41.2674573 Z M142.47102,42.5633649 C142.154708,42.5633649 141.694617,42.4481731 141.234527,42.1601936 C140.774437,41.9010121 140.429369,41.5554368 140.285591,41.2962553 L137.78385,42.7361526 C138.243941,43.5424951 139.020343,44.2048478 139.796745,44.665615 C140.573147,45.1263821 141.522084,45.4431595 142.47102,45.4431595 L142.47102,42.5633649 Z M151.672824,42.534567 L142.47102,42.534567 L142.47102,45.4143616 L151.672824,45.4143616 L151.672824,42.534567 Z M167.775983,42.534567 L151.672824,42.534567 L151.672824,45.4143616 L167.775983,45.4143616 L167.775983,42.534567 Z M167.833494,42.6497587 C167.86225,42.6209608 167.891005,42.5921628 167.919761,42.5633649 C167.948517,42.534567 167.948517,42.534567 167.948517,42.534567 C167.948517,42.534567 167.948517,42.534567 167.891005,42.534567 C167.86225,42.534567 167.804739,42.534567 167.747227,42.534567 L167.747227,45.4143616 C168.609896,45.4143616 169.558833,45.1263821 170.133945,44.3200396 L167.833494,42.6497587 Z M169.731366,42.2465875 L169.731366,42.2465875 L168.293584,44.7232109 L168.293584,44.7232109 L169.731366,42.2465875 Z M170.622791,37.7829058 L167.747227,42.7649505 L170.248968,44.2048478 L173.124532,39.2228031 L170.622791,37.7829058 Z M164.267795,35.7958475 L171.140393,39.7699641 L172.578175,37.2645427 L165.705577,33.2904261 L164.267795,35.7958475 Z M166.050645,35.5654639 L166.223178,35.2486865 L163.721438,33.8087892 L163.548904,34.1255666 L166.050645,35.5654639 Z M159.666892,28.8267444 L163.548904,35.5654639 L166.050645,34.1255666 L162.168633,27.3868471 L159.666892,28.8267444 Z M141.550839,29.575491 L160.903385,29.575491 L160.903385,26.6956964 L141.550839,26.6956964 L141.550839,29.575491 Z M140.515636,27.0412717 L140.285591,27.415645 L142.787332,28.8555424 L143.017377,28.4811691 L140.515636,27.0412717 Z M134.16064,25.0254155 L141.033238,28.9995321 L142.47102,26.4941108 L135.598422,22.5199941 L134.16064,25.0254155 Z" id="Shape" fill="#000000"></path>
                    <path d="M134.879531,23.7583058 L132.061478,28.6539567 C131.831433,29.0283301 131.831433,29.5466931 132.1765,30.122652 L139.049098,42.0162039 C139.681723,43.1105259 141.234527,44.0032622 142.499775,44.0032622 L151.70158,44.0032622 L167.804739,44.0032622 C168.379851,44.0032622 168.811186,43.8016766 169.041231,43.5136971 L169.041231,43.5136971 L171.916795,38.5316524 L165.044197,34.5575358 L164.871663,34.8743132 L160.989652,28.1355937 L141.637106,28.1355937 L141.867151,27.7612204 L134.879531,23.7583058 Z" id="Path" fill="#E1F2FC"></path>
                    <path d="M106.957804,4.31969197 L106.957804,5.7595893 L106.957804,5.7595893 L106.957804,4.31969197 Z M93.1550968,4.29089403 L93.1550968,5.73079135 C93.1550968,5.73079135 93.1550968,5.73079135 93.1550968,5.73079135 L93.1550968,4.29089403 Z M110.408481,6.30675028 L109.171988,7.02669894 L109.171988,7.02669894 L110.408481,6.30675028 Z M117.252323,18.1715042 L118.488816,17.4515556 L118.488816,17.4515556 L117.252323,18.1715042 Z M117.367346,19.6114016 L116.159609,18.833857 C116.159609,18.8626549 116.130853,18.8626549 116.130853,18.8914529 L117.367346,19.6114016 Z M114.549293,24.5358504 L113.312801,23.8159017 C113.312801,23.8446997 113.284045,23.8446997 113.284045,23.8734976 L114.549293,24.5358504 Z M113.226534,25.1694052 L113.226534,26.6093025 L113.226534,26.6093025 L113.226534,25.1694052 Z M99.4238264,25.1406073 L99.4238264,23.70071 L99.4238264,23.70071 L99.4238264,25.1406073 Z M96.0019052,23.153549 L97.2383977,22.4336003 L97.2383977,22.4336003 L96.0019052,23.153549 Z M89.1293072,11.2599971 L90.3657997,10.5400484 C90.3657997,10.5400484 90.3370441,10.5112505 90.3370441,10.5112505 L89.1293072,11.2599971 Z M89.0142846,9.82009975 L90.2220215,10.6264423 C90.4520666,10.2808669 90.5095779,9.87769564 90.423311,9.50332234 C90.3370441,9.12894903 90.0782433,8.78337368 89.7331756,8.58178805 L89.0142846,9.82009975 Z M89.0142846,9.82009975 L87.7777921,9.10015109 C87.5765026,9.4169285 87.547747,9.82009975 87.6340139,10.1944731 C87.7202808,10.5688464 87.9790816,10.8856238 88.2953936,11.0584114 L89.0142846,9.82009975 Z M91.8610929,4.83805501 L92.5799839,3.59974331 C91.8898486,3.19657206 91.0271794,3.42695563 90.6246004,4.11810635 L91.8610929,4.83805501 Z M91.8898486,4.83805501 L91.1709576,6.07636671 C91.8323374,6.45074001 92.6662509,6.24915439 93.0975855,5.61559956 L91.8898486,4.83805501 Z M106.957804,2.87979465 L93.1550968,2.87979465 L93.1550968,5.7595893 L106.957804,5.7595893 L106.957804,2.87979465 Z M111.644973,5.58680162 C111.184883,4.78045912 110.408481,4.11810635 109.632079,3.6573392 C108.855676,3.19657206 107.90674,2.87979465 106.957804,2.87979465 L106.957804,5.7595893 C107.274116,5.7595893 107.734206,5.87478108 108.194297,6.16276055 C108.654387,6.42194207 108.999455,6.76751742 109.143233,7.02669894 L111.644973,5.58680162 Z M118.517571,17.4515556 L111.644973,5.55800367 L109.143233,6.99790099 L116.015831,18.8914529 L118.517571,17.4515556 Z M118.603838,20.3889461 C119.207707,19.4098159 119.006417,18.315494 118.517571,17.4515556 L116.015831,18.8914529 C116.102098,19.0354426 116.102098,19.0930385 116.102098,19.0642406 C116.102098,19.0642406 116.102098,19.0354426 116.102098,18.9778467 C116.102098,18.9202508 116.130853,18.8914529 116.159609,18.833857 L118.603838,20.3889461 Z M115.785786,25.2557991 L118.632594,20.3313502 L116.130853,18.8914529 L113.284045,23.8159017 L115.785786,25.2557991 Z M113.255289,23.8734976 C113.284045,23.8159017 113.312801,23.7871038 113.341556,23.7583058 C113.370312,23.7295079 113.399067,23.70071 113.399067,23.70071 C113.427823,23.70071 113.370312,23.7295079 113.197778,23.7295079 L113.197778,26.6093025 C114.17547,26.6093025 115.239428,26.2349292 115.75703,25.2270011 L113.255289,23.8734976 Z M113.226534,23.7295079 L99.4238264,23.7295079 L99.4238264,26.6093025 L113.226534,26.6093025 L113.226534,23.7295079 Z M99.4238264,23.70071 C99.1075143,23.70071 98.6474241,23.5855182 98.1873338,23.2975387 C97.7272436,23.0383572 97.3821759,22.6927818 97.2383977,22.4336003 L94.736657,23.8734976 C95.1967473,24.6798401 95.9731495,25.3421929 96.7495518,25.80296 C97.5259541,26.2637272 98.4748902,26.5805046 99.4238264,26.5805046 L99.4238264,23.70071 Z M97.2383977,22.4623983 L90.3945554,10.5688464 L87.8928147,12.0087437 L94.736657,23.9022956 L97.2383977,22.4623983 Z M90.3657997,10.5112505 C90.2795328,10.3672607 90.2795328,10.3096648 90.2795328,10.3384628 C90.2795328,10.3672607 90.2795328,10.3960587 90.2795328,10.4536546 C90.2795328,10.5112505 90.2507772,10.5688464 90.2220215,10.6264423 L87.8065477,9.04255519 C87.145168,10.0504833 87.4039688,11.2024012 87.9215703,12.0375416 L90.3657997,10.5112505 Z M88.2953936,11.0584114 L88.2953936,11.0584114 L89.7331756,8.5529901 L89.7331756,8.5529901 L88.2953936,11.0584114 Z M90.6246005,4.11810635 L87.7490365,9.10015109 L90.2507772,10.5400484 L93.1263412,5.55800367 L90.6246005,4.11810635 Z M92.6087396,3.57094536 L92.6087396,3.57094536 L91.1709576,6.07636671 L91.1709576,6.07636671 L92.6087396,3.57094536 Z M93.1550968,2.87979465 C92.263672,2.87979465 91.2572246,3.16777411 90.6533561,4.06051045 L93.0688299,5.64439751 C93.0400743,5.7019934 93.0113186,5.73079135 92.982563,5.7595893 C92.9538073,5.78838724 92.9250517,5.78838724 92.9250517,5.78838724 C92.9250517,5.78838724 93.5644462,5.7595893 93.7082244,5.7595893 L93.1550968,2.87979465 Z" id="Shape" fill="#000000"></path>
                    <path d="M93.1550968,4.29089403 L106.957804,4.29089403 C108.223052,4.29089403 109.775857,5.18363037 110.408481,6.27795233 L117.281079,18.1715042 C117.597391,18.7474632 117.626147,19.2370282 117.396101,19.6114016 L114.549293,24.5358504 C114.348004,24.9102237 113.887913,25.1406073 113.255289,25.1406073 L99.452582,25.1406073 C98.1873338,25.1406073 96.6345293,24.2478709 96.0019052,23.153549 L89.1580628,11.2599971 C88.8129952,10.6840381 88.7842395,10.1656751 89.0142846,9.82009975 L89.0142846,9.82009975 L91.8898486,4.83805501 L91.8898486,4.83805501 C92.0911381,4.49247965 92.5224727,4.29089403 93.1550968,4.29089403 Z" id="Path" fill="#E1F2FC"></path>
                    <path d="M85.0747619,4.31969197 L85.0747619,5.7595893 L85.0747619,5.7595893 L85.0747619,4.31969197 Z M71.2720547,4.31969197 L71.243299,5.7595893 C71.243299,5.7595893 71.243299,5.7595893 71.243299,5.7595893 L71.2720547,4.31969197 Z M88.5254388,6.30675028 L87.2889462,7.02669894 L87.2889462,7.02669894 L88.5254388,6.30675028 Z M95.3980367,18.2003022 L96.6345293,17.4803535 L96.6345293,17.4803535 L95.3980367,18.2003022 Z M95.5130593,19.6401995 L94.3053224,18.8626549 C94.3053224,18.8914529 94.2765668,18.8914529 94.2765668,18.9202508 L95.5130593,19.6401995 Z M92.6662509,24.5646483 L91.4297584,23.8446997 C91.4297584,23.8734976 91.4010028,23.8734976 91.4010028,23.9022956 L92.6662509,24.5646483 Z M91.3722471,25.1694052 L91.3722471,26.6093025 L91.3722471,26.6093025 L91.3722471,25.1694052 Z M77.5407842,25.1694052 L77.5407842,23.7295079 L77.5407842,23.7295079 L77.5407842,25.1694052 Z M74.118863,23.1823469 L75.3553556,22.4623983 L75.3553556,22.4623983 L74.118863,23.1823469 Z M67.2750207,11.288795 L68.5115132,10.5688464 C68.5115132,10.5688464 68.4827576,10.5400484 68.4827576,10.5400484 L67.2750207,11.288795 Z M67.1312425,9.8488977 L68.3389794,10.6552402 C68.5690245,10.3384628 68.6265358,9.90649359 68.5402689,9.53212029 C68.4540019,9.15774698 68.1952012,8.81217162 67.8501335,8.610586 L67.1312425,9.8488977 Z M67.1312425,9.8488977 L65.89475,9.12894903 C65.492171,9.82009975 65.7222161,10.6840381 66.4123515,11.0872094 L67.1312425,9.8488977 Z M70.0068065,4.86685296 L70.7256975,3.62854126 C70.4093855,3.42695563 70.0068065,3.39815768 69.6329832,3.48455152 C69.2591599,3.57094536 68.9428478,3.83012688 68.770314,4.14690429 L70.0068065,4.86685296 Z M70.0068065,4.86685296 L69.2879155,6.10516465 C69.9492952,6.47953796 70.7832088,6.27795233 71.2145434,5.64439751 L70.0068065,4.86685296 Z M85.0747619,2.87979465 L71.2720547,2.87979465 L71.2720547,5.7595893 L85.0747619,5.7595893 L85.0747619,2.87979465 Z M89.7619313,5.58680162 C89.301841,4.78045912 88.5254388,4.11810635 87.7490365,3.6573392 C86.9726342,3.19657206 86.0236981,2.87979465 85.0747619,2.87979465 L85.0747619,5.7595893 C85.391074,5.7595893 85.8511642,5.87478108 86.3112545,6.16276055 C86.7713447,6.42194207 87.1164124,6.76751742 87.2601906,7.02669894 L89.7619313,5.58680162 Z M96.6345293,17.4803535 L89.7619313,5.58680162 L87.2601906,7.02669894 L94.1327886,18.9202508 L96.6345293,17.4803535 Z M96.7207962,20.3889461 C97.3246646,19.4098159 97.1233751,18.315494 96.6345293,17.4515556 L94.1327886,18.8914529 C94.2190555,19.0354426 94.2190555,19.0930385 94.2190555,19.0642406 C94.2190555,19.0642406 94.2190555,19.0354426 94.2190555,18.9778467 C94.2190555,18.9202508 94.2478111,18.8914529 94.2765668,18.833857 L96.7207962,20.3889461 Z M93.9027435,25.284597 L96.7495518,20.3601482 L94.2478111,18.9202508 L91.4010028,23.8446997 L93.9027435,25.284597 Z M91.4010028,23.9022956 C91.4297584,23.8446997 91.458514,23.8159017 91.4872697,23.7871038 C91.5160253,23.7583058 91.544781,23.7295079 91.544781,23.7295079 C91.5735366,23.7295079 91.5160253,23.7583058 91.3434915,23.7583058 L91.3434915,26.6381005 C92.3211832,26.6381005 93.3851419,26.2637272 93.9027435,25.2557991 L91.4010028,23.9022956 Z M91.3722471,23.7295079 L77.5695399,23.7295079 L77.5695399,26.6093025 L91.3722471,26.6093025 L91.3722471,23.7295079 Z M77.5407842,23.7295079 C77.2244722,23.7295079 76.7643819,23.6143161 76.3042917,23.3263366 C75.8442015,23.0671551 75.4991338,22.7215798 75.3553556,22.4623983 L72.8536149,23.9022956 C73.3137051,24.7086381 74.0901074,25.3709908 74.8665097,25.831758 C75.642912,26.2925251 76.5918481,26.6093025 77.5407842,26.6093025 L77.5407842,23.7295079 Z M75.3553556,22.4623983 L68.5115132,10.5688464 L66.0097725,12.0087437 L72.8536149,23.9022956 L75.3553556,22.4623983 Z M68.4827576,10.5400484 C68.3964907,10.3960587 68.3964907,10.3384628 68.3964907,10.3672607 C68.3964907,10.3960587 68.3964907,10.4248566 68.3964907,10.4824525 C68.3964907,10.5400484 68.367735,10.5976443 68.3389794,10.6552402 L65.9235056,9.07135314 C65.2621259,10.0792813 65.5209267,11.2311991 66.0385282,12.0663396 L68.4827576,10.5400484 Z M66.4123515,11.0872094 L66.4123515,11.0872094 L67.8501335,8.58178805 L67.8501335,8.58178805 L66.4123515,11.0872094 Z M68.770314,4.14690429 L65.89475,9.12894903 L68.3964907,10.5688464 L71.2720547,5.58680162 L68.770314,4.14690429 Z M70.7256975,3.59974331 L70.7256975,3.59974331 L69.2879155,6.10516465 L69.2879155,6.10516465 L70.7256975,3.59974331 Z M71.3008103,2.87979465 C70.4093855,2.87979465 69.4029381,3.16777411 68.7990696,4.06051045 L71.2145434,5.64439751 C71.1857878,5.7019934 71.1570321,5.73079135 71.1282765,5.7595893 C71.0995208,5.78838724 71.0707652,5.78838724 71.0707652,5.78838724 C71.0707652,5.78838724 71.1282765,5.7595893 71.2720547,5.7595893 L71.3008103,2.87979465 Z" id="Shape" fill="#000000"></path>
                    <path d="M71.2720547,4.31969197 L85.0747619,4.31969197 C86.3400101,4.31969197 87.8928147,5.21242831 88.5254388,6.30675028 L95.3980367,18.2003022 C95.7143488,18.7762611 95.7431044,19.2658262 95.5130593,19.6401995 L92.6662509,24.5646483 C92.4649614,24.9390217 92.0048712,25.1694052 91.3722471,25.1694052 L77.5695399,25.1694052 C76.3042917,25.1694052 74.7514871,24.2766689 74.118863,23.1823469 L67.2750207,11.288795 C66.929953,10.7128361 66.9011974,10.1944731 67.1312425,9.8488977 L67.1312425,9.8488977 L70.0068065,4.86685296 L70.0068065,4.86685296 C70.208096,4.5212776 70.6681862,4.31969197 71.2720547,4.31969197 Z" id="Path" fill="#E1F2FC"></path>
                    <path d="M63.2204754,4.31969197 L63.2204754,5.7595893 L63.2204754,5.7595893 L63.2204754,4.31969197 Z M49.4177682,4.31969197 L49.4177682,5.7595893 C49.4177682,5.7595893 49.4177682,5.7595893 49.4177682,5.7595893 L49.4177682,4.31969197 Z M66.6711523,6.30675028 L65.4346597,7.02669894 L65.4346597,7.02669894 L66.6711523,6.30675028 Z M73.5149946,18.2003022 L74.7514871,17.4803535 L74.7514871,17.4803535 L73.5149946,18.2003022 Z M73.6587728,19.6401995 L72.4510359,18.8626549 C72.4510359,18.8914529 72.4222803,18.8914529 72.4222803,18.9202508 L73.6587728,19.6401995 Z M70.8119644,24.5646483 L69.5754719,23.8446997 C69.5754719,23.8734976 69.5467163,23.8734976 69.5467163,23.9022956 L70.8119644,24.5646483 Z M69.489205,25.1694052 L69.489205,26.6093025 L69.489205,26.6093025 L69.489205,25.1694052 Z M55.6864977,25.1694052 L55.6864977,23.7295079 L55.6864977,23.7295079 L55.6864977,25.1694052 Z M52.2645766,23.1823469 L53.5010691,22.4623983 L53.5010691,22.4623983 L52.2645766,23.1823469 Z M45.4207342,11.288795 L46.6572267,10.5688464 C46.6572267,10.5688464 46.6284711,10.5400484 46.6284711,10.5400484 L45.4207342,11.288795 Z M45.276956,9.8488977 L46.4846929,10.6552402 C46.714738,10.3096648 46.7722493,9.90649359 46.6859824,9.53212029 C46.5997155,9.15774698 46.3409147,8.81217162 45.995847,8.610586 L45.276956,9.8488977 Z M45.276956,9.8488977 L44.0404635,9.12894903 C43.6378845,9.82009975 43.8679296,10.6840381 44.558065,11.0872094 L45.276956,9.8488977 Z M48.1237643,4.83805501 L48.8426553,3.59974331 C48.5263433,3.39815768 48.1237643,3.36935974 47.749941,3.45575358 C47.3761177,3.54214742 47.0598056,3.80132894 46.8872718,4.11810635 L48.1237643,4.83805501 Z M48.15252,4.83805501 L47.433629,6.07636671 C48.0950087,6.45074001 48.9289223,6.24915439 49.3602569,5.61559956 L48.15252,4.83805501 Z M63.2204754,2.87979465 L49.4177682,2.87979465 L49.4177682,5.7595893 L63.2204754,5.7595893 L63.2204754,2.87979465 Z M67.9076448,5.58680162 C67.4475545,4.78045912 66.6711523,4.11810635 65.89475,3.6573392 C65.1183477,3.19657206 64.1694116,2.87979465 63.2204754,2.87979465 L63.2204754,5.7595893 C63.5367875,5.7595893 63.9968777,5.87478108 64.456968,6.16276055 C64.9170582,6.42194207 65.2621259,6.76751742 65.4059041,7.02669894 L67.9076448,5.58680162 Z M74.7802428,17.4803535 L67.9076448,5.58680162 L65.4059041,7.02669894 L72.2785021,18.9202508 L74.7802428,17.4803535 Z M74.8665097,20.3889461 C75.4703781,19.4098159 75.2690887,18.315494 74.7802428,17.4515556 L72.2785021,18.8914529 C72.364769,19.0354426 72.364769,19.0930385 72.364769,19.0642406 C72.364769,19.0642406 72.364769,19.0354426 72.364769,18.9778467 C72.364769,18.9202508 72.3935246,18.8914529 72.4222803,18.833857 L74.8665097,20.3889461 Z M72.048457,25.284597 L74.8952653,20.3601482 L72.3935246,18.9202508 L69.5467163,23.8446997 L72.048457,25.284597 Z M69.5467163,23.8734976 C69.5754719,23.8159017 69.6042275,23.7871038 69.6329832,23.7583058 C69.6617388,23.7295079 69.6904945,23.70071 69.6904945,23.70071 C69.7192501,23.70071 69.6617388,23.7295079 69.489205,23.7295079 L69.489205,26.6093025 C70.4668968,26.6093025 71.5308554,26.2349292 72.048457,25.2270011 L69.5467163,23.8734976 Z M69.5179606,23.7295079 L55.7152534,23.7295079 L55.7152534,26.6093025 L69.5179606,26.6093025 L69.5179606,23.7295079 Z M55.6864977,23.7295079 C55.3701857,23.7295079 54.9100954,23.6143161 54.4500052,23.3263366 C53.989915,23.0671551 53.6448473,22.7215798 53.5010691,22.4623983 L50.9993284,23.9022956 C51.4594186,24.7086381 52.2358209,25.3709908 53.0122232,25.831758 C53.7886255,26.2925251 54.7375616,26.6093025 55.6864977,26.6093025 L55.6864977,23.7295079 Z M53.5010691,22.4623983 L46.6572267,10.5688464 L44.155486,12.0087437 L50.9993284,23.9022956 L53.5010691,22.4623983 Z M46.6284711,10.5112505 C46.5422042,10.3672607 46.5422042,10.3096648 46.5422042,10.3384628 C46.5422042,10.3672607 46.5422042,10.3960587 46.5422042,10.4536546 C46.5422042,10.5112505 46.5134485,10.5688464 46.4846929,10.6264423 L44.0692191,9.04255519 C43.4078394,10.0504833 43.6666402,11.2024012 44.1842417,12.0375416 L46.6284711,10.5112505 Z M44.558065,11.0872094 L44.558065,11.0872094 L45.995847,8.58178805 L45.995847,8.58178805 L44.558065,11.0872094 Z M46.8872719,4.11810635 L44.0117078,9.10015109 L46.5134485,10.5400484 L49.3890125,5.55800367 L46.8872719,4.11810635 Z M48.871411,3.59974331 L48.871411,3.59974331 L47.433629,6.10516465 L47.433629,6.10516465 L48.871411,3.59974331 Z M49.4465238,2.87979465 C48.555099,2.87979465 47.5486516,3.16777411 46.9447831,4.06051045 L49.3602569,5.64439751 C49.3315013,5.7019934 49.3027456,5.73079135 49.27399,5.7595893 C49.2452343,5.78838724 49.2164787,5.78838724 49.2164787,5.78838724 C49.2164787,5.78838724 49.27399,5.7595893 49.4177682,5.7595893 L49.4465238,2.87979465 Z" id="Shape" fill="#000000"></path>
                    <path d="M49.4177682,4.31969197 L63.2204754,4.31969197 C64.4857236,4.31969197 66.0385282,5.21242831 66.6711523,6.30675028 L73.5437502,18.2003022 C73.8600623,18.7762611 73.8888179,19.2658262 73.6587728,19.6401995 L70.8119644,24.5646483 C70.610675,24.9390217 70.1505847,25.1694052 69.5179606,25.1694052 L55.7152534,25.1694052 C54.4500052,25.1694052 52.8972006,24.2766689 52.2645766,23.1823469 L45.4207342,11.288795 C45.0756665,10.7128361 45.0469109,10.1944731 45.276956,9.8488977 L45.276956,9.8488977 L48.15252,4.86685296 L48.15252,4.86685296 C48.3538095,4.5212776 48.8138997,4.31969197 49.4177682,4.31969197 Z" id="Path" fill="#E1F2FC"></path>
                    <path d="M41.4237002,4.26209608 L41.4237002,5.7019934 L41.4237002,5.7019934 L41.4237002,4.26209608 Z M27.620993,4.26209608 L27.5922373,5.7019934 C27.5922373,5.7019934 27.5922373,5.7019934 27.5922373,5.7019934 L27.620993,4.26209608 Z M44.8456214,6.24915439 L43.6091289,6.96910305 L43.6091289,6.96910305 L44.8456214,6.24915439 Z M51.7182194,18.1139083 L52.9547119,17.3939597 L52.9547119,17.3939597 L51.7182194,18.1139083 Z M51.833242,19.5538057 L50.6255051,18.7762611 C50.6255051,18.8050591 50.5967494,18.8050591 50.5967494,18.833857 L51.833242,19.5538057 Z M48.9864336,24.4782545 L47.7499411,23.7583058 C47.7499411,23.7871038 47.7211854,23.7871038 47.7211854,23.8159017 L48.9864336,24.4782545 Z M47.6924298,25.1118093 L47.6924298,26.5517067 L47.6924298,26.5517067 L47.6924298,25.1118093 Z M33.8897225,25.1118093 L33.8897225,23.671912 L33.8897225,23.671912 L33.8897225,25.1118093 Z M30.4390457,23.124751 L31.6755382,22.4048024 L31.6755382,22.4048024 L30.4390457,23.124751 Z M23.5952034,11.2024012 L24.8316959,10.4824525 C24.8316959,10.4824525 24.8029402,10.4536546 24.8029402,10.4536546 L23.5952034,11.2024012 Z M23.4514252,9.76250386 L24.659162,10.5688464 C24.8892072,10.223271 24.9467184,9.82009975 24.8604515,9.44572645 C24.7741846,9.07135314 24.5153838,8.72577778 24.1703162,8.52419216 L23.4514252,9.76250386 Z M23.4514252,9.76250386 L22.2149326,9.04255519 C21.8123537,9.73370591 22.0423988,10.5976443 22.7325341,11.0008156 L23.4514252,9.76250386 Z M26.3269892,4.78045912 L27.0458802,3.54214742 C26.7295681,3.34056179 26.3269892,3.31176385 25.9531658,3.39815768 C25.5793425,3.48455152 25.2630305,3.74373304 25.0904966,4.06051045 L26.3269892,4.78045912 Z M26.3269892,4.78045912 L25.6080982,6.01877081 C26.2694779,6.39314412 27.1033914,6.19155849 27.534726,5.55800367 L26.3269892,4.78045912 Z M41.4237002,2.82219876 L27.620993,2.82219876 L27.620993,5.7019934 L41.4237002,5.7019934 L41.4237002,2.82219876 Z M46.1108696,5.52920572 C45.6507793,4.72286322 44.874377,4.06051045 44.0979748,3.59974331 C43.3215725,3.13897617 42.3726364,2.82219876 41.4237002,2.82219876 L41.4237002,5.7019934 C41.7400123,5.7019934 42.2001025,5.81718519 42.6601928,6.10516465 C43.120283,6.36434617 43.4653507,6.70992153 43.6091289,6.96910305 L46.1108696,5.52920572 Z M52.9547119,17.3939597 L46.1108696,5.52920572 L43.6091289,6.96910305 L50.4817269,18.8626549 L52.9547119,17.3939597 Z M53.0697345,20.3313502 C53.6736029,19.35222 53.4723134,18.2578981 52.9834676,17.3939597 L50.4817269,18.833857 C50.5679938,18.9778467 50.5679938,19.0354426 50.5679938,19.0066447 C50.5679938,19.0066447 50.5679938,18.9778467 50.5679938,18.9202508 C50.5679938,18.8626549 50.5967494,18.833857 50.6255051,18.7762611 L53.0697345,20.3313502 Z M50.2516817,25.1982032 L53.0984901,20.2737543 L50.5967494,18.833857 L47.7499411,23.7583058 L50.2516817,25.1982032 Z M47.7211854,23.8159017 C47.7499411,23.7583058 47.7786967,23.7295079 47.8074523,23.70071 C47.836208,23.671912 47.8649636,23.6431141 47.8649636,23.6431141 C47.8937193,23.6431141 47.836208,23.671912 47.6636741,23.671912 L47.6636741,26.5517067 C48.6413659,26.5517067 49.7053246,26.1773334 50.2229261,25.1694052 L47.7211854,23.8159017 Z M47.6924298,23.671912 L33.8897225,23.671912 L33.8897225,26.5517067 L47.6924298,26.5517067 L47.6924298,23.671912 Z M33.8897225,23.671912 C33.5734105,23.671912 33.1133202,23.5567202 32.65323,23.2687408 C32.1931397,23.0095592 31.8480721,22.6639839 31.7042939,22.4048024 L29.2025532,23.8446997 C29.6626434,24.6510422 30.4390457,25.313395 31.215448,25.7741621 C31.9918503,26.2349292 32.9407864,26.5517067 33.8897225,26.5517067 L33.8897225,23.671912 Z M31.7042939,22.4048024 L24.8604515,10.5112505 L22.3587108,11.9511478 L29.2025532,23.8446997 L31.7042939,22.4048024 Z M25.0064529,10.8983385 C24.920186,10.7543487 24.745429,10.2520689 24.745429,10.2808669 C24.745429,10.3096648 24.745429,10.3384628 24.745429,10.3960587 C24.745429,10.4536546 24.611204,10.0408667 24.5824484,10.0984626 L22.2724439,8.9849593 C21.6110642,9.99288743 21.8698649,11.1448053 22.3874665,11.9799457 L25.0064529,10.8983385 Z M22.7325341,11.0008156 L22.7325341,11.0008156 L24.1703162,8.49539421 L24.1703162,8.49539421 L22.7325341,11.0008156 Z M25.0904966,4.06051045 L22.2149326,9.04255519 L24.7166733,10.4824525 L27.5922373,5.50040778 L25.0904966,4.06051045 Z M27.0458802,3.54214742 L27.0458802,3.54214742 L25.6080982,6.04756876 L25.6080982,6.04756876 L27.0458802,3.54214742 Z M27.6497485,2.82219876 C26.7583237,2.82219876 25.7518763,3.11017822 25.1480078,4.00291456 L27.5634816,5.58680162 C27.534726,5.64439751 27.5059703,5.67319546 27.4772147,5.7019934 C27.448459,5.73079135 27.4197034,5.73079135 27.4197034,5.73079135 C27.4197034,5.73079135 27.4772147,5.7019934 27.6209929,5.7019934 L27.6497485,2.82219876 Z" id="Shape" fill="#000000"></path>
                    <path d="M27.620993,4.26209608 L41.4237002,4.26209608 C42.6889484,4.26209608 44.241753,5.15483242 44.874377,6.24915439 L51.746975,18.1427063 C52.0632871,18.7186652 52.0920427,19.2082303 51.8619976,19.5826036 L49.0151892,24.5070525 C48.8138997,24.8814258 48.3538095,25.1118093 47.7211854,25.1118093 L33.9184782,25.1118093 C32.65323,25.1118093 31.1004254,24.219073 30.4678013,23.124751 L23.623959,11.2311991 C23.2788913,10.6552402 23.2501357,10.1368772 23.4801808,9.7913018 L23.4801808,9.7913018 L26.3557448,4.80925706 L26.3557448,4.80925706 C26.5570343,4.43488376 26.9883689,4.23329813 27.620993,4.26209608 Z" id="Path" fill="#E1F2FC"></path>
                    <path d="M66.5848853,44.7232109 C65.0608364,44.7232109 63.2779867,43.7440807 62.5303401,42.4193752 L55.6577421,30.5546212 C55.2264075,29.8058746 55.1688962,29.0283301 55.5427195,28.4235732 C55.5427195,28.3947752 58.3607723,23.5279223 58.3607723,23.5279223 C58.7058399,22.9231654 59.3959753,22.5487921 60.2874001,22.5487921 L128.150711,22.5487921 C129.67476,22.5487921 131.457609,23.5855182 132.205256,24.9102237 L139.077854,36.8037756 C139.509189,37.5525222 139.5667,38.3588647 139.192877,38.9636216 C139.192877,38.9924195 136.374824,43.8016766 136.374824,43.8016766 C136.029756,44.4064335 135.339621,44.7232109 134.448196,44.7232109 L66.5848853,44.7232109 L66.5848853,44.7232109 Z" id="Path" fill="#E1F2FC"></path>
                    <path d="M128.150711,23.4127305 C129.415959,23.4127305 130.968764,24.2478709 131.601388,25.3421929 L138.473986,37.2069469 C138.790298,37.7541078 138.819053,38.2436729 138.589008,38.6180462 C138.589008,38.6468442 138.560253,38.6468442 138.560253,38.6468442 C138.560253,38.6756421 138.531497,38.6756421 138.531497,38.7044401 C138.531497,38.733238 138.502741,38.733238 138.502741,38.762036 C138.502741,38.7908339 138.473986,38.7908339 138.473986,38.8196319 C138.473986,38.8484298 138.44523,38.8484298 138.44523,38.8772277 C138.44523,38.9060257 138.416474,38.9060257 138.416474,38.9348236 C138.416474,38.9636216 138.387719,38.9636216 138.387719,38.9924195 C138.387719,39.0212175 138.358963,39.0212175 138.358963,39.0500154 C138.358963,39.0788134 138.330207,39.0788134 138.330207,39.1076113 C138.330207,39.1364093 138.301452,39.1364093 138.301452,39.1652072 C138.301452,39.1940052 138.272696,39.1940052 138.272696,39.2228031 C138.272696,39.2516011 138.243941,39.2516011 138.243941,39.280399 C138.243941,39.3091969 138.215185,39.3091969 138.215185,39.3379949 C138.215185,39.3667928 138.186429,39.3667928 138.186429,39.3955908 C138.186429,39.4243887 138.157674,39.4243887 138.157674,39.4531867 C138.157674,39.4819846 138.128918,39.4819846 138.128918,39.5107826 C138.128918,39.5395805 138.100162,39.5395805 138.100162,39.5683785 C138.100162,39.5971764 138.071407,39.5971764 138.071407,39.6259744 C138.071407,39.6547723 138.042651,39.6547723 138.042651,39.6835703 C138.042651,39.7123682 138.013895,39.7123682 138.013895,39.7411661 C138.013895,39.7699641 137.98514,39.7699641 137.98514,39.798762 C137.98514,39.82756 137.956384,39.82756 137.956384,39.8563579 C137.956384,39.8851559 137.927628,39.8851559 137.927628,39.9139538 C137.927628,39.9427518 137.898873,39.9427518 137.898873,39.9715497 C137.898873,40.0003477 137.870117,40.0003477 137.870117,40.0291456 C137.870117,40.0579436 137.841362,40.0579436 137.841362,40.0867415 C137.841362,40.1155394 137.812606,40.1155394 137.812606,40.1443374 C137.812606,40.1731353 137.78385,40.1731353 137.78385,40.2019333 C137.78385,40.2307312 137.755095,40.2307312 137.755095,40.2595292 C137.755095,40.2883271 137.726339,40.2883271 137.726339,40.3171251 C137.726339,40.345923 137.697583,40.345923 137.697583,40.374721 C137.697583,40.4035189 137.668828,40.4035189 137.668828,40.4323169 C137.668828,40.4611148 137.640072,40.4611148 137.640072,40.4899128 C137.640072,40.5187107 137.611316,40.5187107 137.611316,40.5475086 C137.611316,40.5763066 137.582561,40.5763066 137.582561,40.6051045 C137.582561,40.6339025 137.553805,40.6339025 137.553805,40.6627004 C137.553805,40.6914984 137.52505,40.6914984 137.52505,40.7202963 C137.52505,40.7490943 137.496294,40.7490943 137.496294,40.7778922 C137.496294,40.8066902 137.467538,40.8066902 137.467538,40.8354881 C137.467538,40.8642861 137.438783,40.8642861 137.438783,40.893084 C137.438783,40.9218819 137.410027,40.9218819 137.410027,40.9506799 C137.410027,40.9794778 137.381271,40.9794778 137.381271,41.0082758 C137.381271,41.0370737 137.352516,41.0370737 137.352516,41.0658717 C137.352516,41.0946696 137.32376,41.0946696 137.32376,41.1234676 C137.32376,41.1522655 137.295004,41.1522655 137.295004,41.1810635 C137.295004,41.2098614 137.266249,41.2098614 137.266249,41.2386594 C137.266249,41.2674573 137.237493,41.2674573 137.237493,41.2962553 C137.237493,41.3250532 137.208737,41.3250532 137.208737,41.3538511 C137.208737,41.3826491 137.179982,41.3826491 137.179982,41.411447 C137.179982,41.440245 137.151226,41.440245 137.151226,41.4690429 C137.151226,41.4978409 137.122471,41.4978409 137.122471,41.5266388 C137.122471,41.5554368 137.093715,41.5554368 137.093715,41.5842347 C137.093715,41.6130327 137.064959,41.6130327 137.064959,41.6418306 C137.064959,41.6706286 137.036204,41.6706286 137.036204,41.6994265 C137.036204,41.7282245 137.007448,41.7282245 137.007448,41.7570224 C137.007448,41.7858203 136.978692,41.7858203 136.978692,41.8146183 C136.978692,41.8434162 136.949937,41.8434162 136.949937,41.8722142 C136.949937,41.9010121 136.921181,41.9010121 136.921181,41.9298101 C136.921181,41.958608 136.892425,41.958608 136.892425,41.987406 C136.892425,42.0162039 136.86367,42.0162039 136.86367,42.0450019 C136.86367,42.0737998 136.834914,42.0737998 136.834914,42.1025978 C136.834914,42.1313957 136.806159,42.1313957 136.806159,42.1601936 C136.806159,42.1889916 136.777403,42.1889916 136.777403,42.2177895 C136.777403,42.2465875 136.748647,42.2465875 136.748647,42.2753854 C136.748647,42.3041834 136.719892,42.3041834 136.719892,42.3329813 C136.719892,42.3617793 136.691136,42.3617793 136.691136,42.3905772 C136.691136,42.4193752 136.66238,42.4193752 136.66238,42.4481731 C136.66238,42.4769711 136.633625,42.4769711 136.633625,42.505769 C136.633625,42.534567 136.604869,42.534567 136.604869,42.5633649 C136.604869,42.5921628 136.576113,42.5921628 136.576113,42.6209608 C136.576113,42.6497587 136.547358,42.6497587 136.547358,42.6785567 C136.547358,42.7073546 136.518602,42.7073546 136.518602,42.7361526 C136.518602,42.7649505 136.489846,42.7649505 136.489846,42.7937485 C136.489846,42.8225464 136.461091,42.8225464 136.461091,42.8513444 C136.461091,42.8801423 136.432335,42.8801423 136.432335,42.9089403 C136.432335,42.9377382 136.40358,42.9377382 136.40358,42.9665361 C136.40358,42.9953341 136.374824,42.9953341 136.374824,43.024132 C136.374824,43.05293 136.346068,43.05293 136.346068,43.0817279 C136.346068,43.1105259 136.317313,43.1105259 136.317313,43.1393238 C136.317313,43.1681218 136.288557,43.1681218 136.288557,43.1969197 C136.288557,43.2257177 136.259801,43.2257177 136.259801,43.2545156 C136.259801,43.2833136 136.231046,43.2833136 136.231046,43.3121115 C136.231046,43.3409095 136.20229,43.3409095 136.20229,43.3697074 C136.20229,43.3985053 136.173534,43.3985053 136.173534,43.4273033 C136.173534,43.4561012 136.144779,43.4561012 136.144779,43.4848992 C136.144779,43.5136971 136.116023,43.5136971 136.116023,43.5424951 C136.116023,43.571293 136.087268,43.571293 136.087268,43.600091 C136.087268,43.6288889 136.058512,43.6288889 136.058512,43.6576869 C136.058512,43.6864848 136.029756,43.6864848 136.029756,43.7152828 C136.029756,43.7440807 136.001001,43.7440807 136.001001,43.7728787 C136.001001,43.8016766 135.972245,43.8016766 135.972245,43.8304745 C135.972245,43.8592725 135.943489,43.8592725 135.943489,43.8880704 C135.943489,43.9168684 135.914734,43.9168684 135.914734,43.9456663 C135.914734,43.9744643 135.885978,43.9744643 135.885978,44.0032622 C135.885978,44.0320602 135.857222,44.0320602 135.857222,44.0608581 C135.857222,44.0896561 135.828467,44.0896561 135.828467,44.118454 C135.828467,44.147252 135.799711,44.147252 135.799711,44.1760499 C135.799711,44.2048478 135.770955,44.2048478 135.770955,44.2336458 C135.770955,44.2624437 135.7422,44.2912417 135.7422,44.3200396 C135.54091,44.6944129 135.08082,44.9535945 134.448196,44.9535945 L66.613641,44.9535945 L66.613641,44.9247965 C65.4634154,44.9247965 63.7955882,44.0320602 63.1629642,42.9377382 L56.2903662,31.0441863 C55.9740541,30.4970253 55.9452985,29.9786623 56.1753436,29.604289 C56.1753436,29.575491 56.2040993,29.575491 56.2040993,29.5466931 C56.2040993,29.5178951 56.2328549,29.5178951 56.2328549,29.4890972 C56.2328549,29.4602992 56.2616105,29.4602992 56.2616105,29.4315013 C56.2616105,29.4027034 56.2903662,29.4027034 56.2903662,29.3739054 C56.2903662,29.3451075 56.3191218,29.3451075 56.3191218,29.3163095 C56.3191218,29.2875116 56.3478775,29.2875116 56.3478775,29.2587136 C56.3478775,29.2299157 56.3766331,29.2299157 56.3766331,29.2011177 C56.3766331,29.1723198 56.4053887,29.1723198 56.4053887,29.1435218 C56.4053887,29.1147239 56.4341444,29.1147239 56.4341444,29.0859259 C56.4341444,29.057128 56.4629,29.057128 56.4629,29.0283301 C56.4629,28.9995321 56.4916557,28.9995321 56.4916557,28.9707342 C56.4916557,28.9419362 56.5204113,28.9419362 56.5204113,28.9131383 C56.5204113,28.8843403 56.5491669,28.8843403 56.5491669,28.8555424 C56.5491669,28.8267444 56.5779226,28.8267444 56.5779226,28.7979465 C56.5779226,28.7691485 56.6066782,28.7691485 56.6066782,28.7403506 C56.6066782,28.7115526 56.6354339,28.7115526 56.6354339,28.6827547 C56.6354339,28.6539567 56.6641895,28.6539567 56.6641895,28.6251588 C56.6641895,28.5963609 56.6929451,28.5963609 56.6929451,28.5675629 C56.6929451,28.538765 56.7217008,28.538765 56.7217008,28.509967 C56.7217008,28.4811691 56.7504564,28.4811691 56.7504564,28.4523711 C56.7504564,28.4235732 56.7792121,28.4235732 56.7792121,28.3947752 C56.7792121,28.3659773 56.8079677,28.3659773 56.8079677,28.3371793 C56.8079677,28.3083814 56.8367233,28.3083814 56.8367233,28.2795834 C56.8367233,28.2507855 56.865479,28.2507855 56.865479,28.2219876 C56.865479,28.1931896 56.8942346,28.1931896 56.8942346,28.1643917 C56.8942346,28.1355937 56.9229903,28.1355937 56.9229903,28.1067958 C56.9229903,28.0779978 56.9517459,28.0779978 56.9517459,28.0491999 C56.9517459,28.0204019 56.9805015,28.0204019 56.9805015,27.991604 C56.9805015,27.962806 57.0092572,27.962806 57.0092572,27.9340081 C57.0092572,27.9052101 57.0380128,27.9052101 57.0380128,27.8764122 C57.0380128,27.8476142 57.0667685,27.8476142 57.0667685,27.8188163 C57.0667685,27.7900184 57.0955241,27.7900184 57.0955241,27.7612204 C57.0955241,27.7324225 57.1242797,27.7324225 57.1242797,27.7036245 C57.1242797,27.6748266 57.1530354,27.6748266 57.1530354,27.6460286 C57.1530354,27.6172307 57.181791,27.6172307 57.181791,27.5884327 C57.181791,27.5596348 57.2105467,27.5596348 57.2105467,27.5308368 C57.2105467,27.5020389 57.2393023,27.5020389 57.2393023,27.4732409 C57.2393023,27.444443 57.2680579,27.444443 57.2680579,27.415645 C57.2680579,27.3868471 57.2968136,27.3868471 57.2968136,27.3580492 C57.2968136,27.3292512 57.3255692,27.3292512 57.3255692,27.3004533 C57.3255692,27.2716553 57.3543249,27.2716553 57.3543249,27.2428574 C57.3543249,27.2140594 57.3830805,27.2140594 57.3830805,27.1852615 C57.3830805,27.1564635 57.4118361,27.1564635 57.4118361,27.1276656 C57.4118361,27.0988676 57.4405918,27.0988676 57.4405918,27.0700697 C57.4405918,27.0412717 57.4693474,27.0412717 57.4693474,27.0124738 C57.4693474,26.9836759 57.4981031,26.9836759 57.4981031,26.9548779 C57.4981031,26.92608 57.5268587,26.92608 57.5268587,26.897282 C57.5268587,26.8684841 57.5556143,26.8684841 57.5556143,26.8396861 C57.5556143,26.8108882 57.58437,26.8108882 57.58437,26.7820902 C57.58437,26.7532923 57.6131256,26.7532923 57.6131256,26.7244943 C57.6131256,26.6956964 57.6418813,26.6956964 57.6418813,26.6668984 C57.6418813,26.6381005 57.6706369,26.6381005 57.6706369,26.6093025 C57.6706369,26.5805046 57.6993925,26.5805046 57.6993925,26.5517067 C57.6993925,26.5229087 57.7281482,26.5229087 57.7281482,26.4941108 C57.7281482,26.4653128 57.7569038,26.4653128 57.7569038,26.4365149 C57.7569038,26.4077169 57.7856595,26.4077169 57.7856595,26.378919 C57.7856595,26.350121 57.8144151,26.350121 57.8144151,26.3213231 C57.8144151,26.2925251 57.8431707,26.2925251 57.8431707,26.2637272 C57.8431707,26.2349292 57.8719264,26.2349292 57.8719264,26.2061313 C57.8719264,26.1773334 57.900682,26.1773334 57.900682,26.1485354 C57.900682,26.1197375 57.9294377,26.1197375 57.9294377,26.0909395 C57.9294377,26.0621416 57.9581933,26.0621416 57.9581933,26.0333436 C57.9581933,26.0045457 57.9869489,26.0045457 57.9869489,25.9757477 C57.9869489,25.9469498 58.0157046,25.9469498 58.0157046,25.9181518 C58.0157046,25.8893539 58.0444602,25.8893539 58.0444602,25.8605559 C58.0444602,25.831758 58.0732159,25.831758 58.0732159,25.80296 C58.0732159,25.7741621 58.1019715,25.7741621 58.1019715,25.7453642 C58.1019715,25.7165662 58.1307271,25.7165662 58.1307271,25.6877683 C58.1307271,25.6589703 58.1594828,25.6589703 58.1594828,25.6301724 C58.1594828,25.6013744 58.1882384,25.6013744 58.1882384,25.5725765 C58.1882384,25.5437785 58.2169941,25.5437785 58.2169941,25.5149806 C58.2169941,25.4861826 58.2457497,25.4861826 58.2457497,25.4573847 C58.2457497,25.4285867 58.2745053,25.4285867 58.2745053,25.3997888 C58.2745053,25.3709908 58.303261,25.3709908 58.303261,25.3421929 C58.303261,25.313395 58.3320166,25.313395 58.3320166,25.284597 C58.3320166,25.2557991 58.3607723,25.2557991 58.3607723,25.2270011 C58.3607723,25.1982032 58.3895279,25.1982032 58.3895279,25.1694052 C58.3895279,25.1406073 58.4182835,25.1406073 58.4182835,25.1118093 C58.4182835,25.0830114 58.4470392,25.0830114 58.4470392,25.0542134 C58.4470392,25.0254155 58.4757948,25.0254155 58.4757948,24.9966175 C58.4757948,24.9678196 58.5045505,24.9678196 58.5045505,24.9390217 C58.5045505,24.9102237 58.5333061,24.9102237 58.5333061,24.8814258 C58.5333061,24.8526278 58.5620617,24.8526278 58.5620617,24.8238299 C58.5620617,24.7950319 58.5908174,24.7950319 58.5908174,24.766234 C58.5908174,24.737436 58.619573,24.737436 58.619573,24.7086381 C58.619573,24.6798401 58.6483287,24.6798401 58.6483287,24.6510422 C58.6483287,24.6222442 58.6770843,24.6222442 58.6770843,24.5934463 C58.6770843,24.5646483 58.7058399,24.5646483 58.7058399,24.5358504 C58.7058399,24.5070525 58.7345956,24.5070525 58.7345956,24.4782545 C58.7345956,24.4494566 58.7633512,24.4494566 58.7633512,24.4206586 C58.7633512,24.3918607 58.7921069,24.3918607 58.7921069,24.3630627 C58.7921069,24.3342648 58.8208625,24.3342648 58.8208625,24.3054668 C58.8208625,24.2766689 58.8496181,24.2766689 58.8496181,24.2478709 C58.8496181,24.219073 58.8783738,24.219073 58.8783738,24.190275 C58.8783738,24.1614771 58.9071294,24.1614771 58.9071294,24.1326792 C58.9071294,24.1038812 58.9358851,24.1038812 58.9358851,24.0750833 C58.9358851,24.0462853 58.9646407,24.0462853 58.9646407,24.0174874 C58.9646407,23.9886894 58.9933963,23.9886894 58.9933963,23.9598915 C58.9933963,23.9310935 59.022152,23.9886894 59.022152,23.9598915 C59.2234415,23.5855182 59.6835317,23.4127305 60.3161558,23.4127305 L128.150711,23.4127305 M60.2874001,21.9728332 C59.1371745,21.9728332 58.2169941,22.4048024 57.7281482,23.2399428 C57.7281482,23.2687408 57.6993925,23.2399428 57.6993925,23.2687408 C57.6993925,23.2975387 57.6706369,23.2975387 57.6706369,23.2975387 C57.6706369,23.3263366 57.6418813,23.3263366 57.6418813,23.3263366 C57.6418813,23.3551346 57.6131256,23.3551346 57.6131256,23.3839325 C57.6131256,23.4127305 57.58437,23.4127305 57.58437,23.4415284 C57.58437,23.4703264 57.5556143,23.4703264 57.5556143,23.4991243 C57.5556143,23.5279223 57.5268587,23.5279223 57.5268587,23.5567202 C57.5268587,23.5855182 57.4981031,23.5855182 57.4981031,23.6143161 C57.4981031,23.6431141 57.4693474,23.6431141 57.4693474,23.671912 C57.4693474,23.70071 57.4405918,23.70071 57.4405918,23.7295079 C57.4405918,23.7583058 57.4118361,23.7583058 57.4118361,23.7871038 C57.4118361,23.8159017 57.3830805,23.8159017 57.3830805,23.8446997 C57.3830805,23.8734976 57.3543249,23.8734976 57.3543249,23.9022956 C57.3543249,23.9310935 57.3255692,23.9310935 57.3255692,23.9598915 C57.3255692,23.9886894 57.2968136,23.9886894 57.2968136,24.0174874 C57.2968136,24.0462853 57.2680579,24.0462853 57.2680579,24.0750833 C57.2680579,24.1038812 57.2393023,24.1038812 57.2393023,24.1326792 C57.2393023,24.1614771 57.2105467,24.1614771 57.2105467,24.190275 C57.2105467,24.219073 57.181791,24.219073 57.181791,24.2478709 C57.181791,24.2766689 57.1530354,24.2766689 57.1530354,24.3054668 C57.1530354,24.3342648 57.1242797,24.3342648 57.1242797,24.3630627 C57.1242797,24.3918607 57.0955241,24.3918607 57.0955241,24.4206586 C57.0955241,24.4494566 57.0667685,24.4494566 57.0667685,24.4782545 C57.0667685,24.5070525 57.0380128,24.5070525 57.0380128,24.5358504 C57.0380128,24.5646483 57.0092572,24.5646483 57.0092572,24.5934463 C57.0092572,24.6222442 56.9805015,24.6222442 56.9805015,24.6510422 C56.9805015,24.6798401 56.9517459,24.6798401 56.9517459,24.7086381 C56.9517459,24.737436 56.9229903,24.737436 56.9229903,24.766234 C56.9229903,24.7950319 56.8942346,24.7950319 56.8942346,24.8238299 C56.8942346,24.8526278 56.865479,24.8526278 56.865479,24.8814258 C56.865479,24.9102237 56.8367233,24.9102237 56.8367233,24.9390217 C56.8367233,24.9678196 56.8079677,24.9678196 56.8079677,24.9966175 C56.8079677,25.0254155 56.7792121,25.0254155 56.7792121,25.0542134 C56.7792121,25.0830114 56.7504564,25.0830114 56.7504564,25.1118093 C56.7504564,25.1406073 56.7217008,25.1406073 56.7217008,25.1694052 C56.7217008,25.1982032 56.6929451,25.1982032 56.6929451,25.2270011 C56.6929451,25.2557991 56.6641895,25.2557991 56.6641895,25.284597 C56.6641895,25.313395 56.6354339,25.313395 56.6354339,25.3421929 C56.6354339,25.3709908 56.6066782,25.3709908 56.6066782,25.3997888 C56.6066782,25.4285867 56.5779226,25.4285867 56.5779226,25.4573847 C56.5779226,25.4861826 56.5491669,25.4861826 56.5491669,25.5149806 C56.5491669,25.5437785 56.5204113,25.5437785 56.5204113,25.5725765 C56.5204113,25.6013744 56.4916557,25.6013744 56.4916557,25.6301724 C56.4916557,25.6589703 56.4629,25.6589703 56.4629,25.6877683 C56.4629,25.7165662 56.4341444,25.7165662 56.4341444,25.7453642 C56.4341444,25.7741621 56.4053887,25.7741621 56.4053887,25.80296 C56.4053887,25.831758 56.3766331,25.831758 56.3766331,25.8605559 C56.3766331,25.8893539 56.3478775,25.8893539 56.3478775,25.9181518 C56.3478775,25.9469498 56.3191218,25.9469498 56.3191218,25.9757477 C56.3191218,26.0045457 56.2903662,26.0045457 56.2903662,26.0333436 C56.2903662,26.0621416 56.2616105,26.0621416 56.2616105,26.0909395 C56.2616105,26.1197375 56.2328549,26.1197375 56.2328549,26.1485354 C56.2328549,26.1773334 56.2040993,26.1773334 56.2040993,26.2061313 C56.2040993,26.2349292 56.1753436,26.2349292 56.1753436,26.2637272 C56.1753436,26.2925251 56.146588,26.2925251 56.146588,26.3213231 C56.146588,26.350121 56.1178323,26.350121 56.1178323,26.378919 C56.1178323,26.4077169 56.0890767,26.4077169 56.0890767,26.4365149 C56.0890767,26.4653128 56.0603211,26.4653128 56.0603211,26.4941108 C56.0603211,26.5229087 56.0315654,26.5229087 56.0315654,26.5517067 C56.0315654,26.5805046 56.0028098,26.5805046 56.0028098,26.6093025 C56.0028098,26.6381005 55.9740541,26.6381005 55.9740541,26.6668984 C55.9740541,26.6956964 55.9452985,26.6956964 55.9452985,26.7244943 C55.9452985,26.7532923 55.9165429,26.7532923 55.9165429,26.7820902 C55.9165429,26.8108882 55.8877872,26.8108882 55.8877872,26.8396861 C55.8877872,26.8684841 55.8590316,26.8684841 55.8590316,26.897282 C55.8590316,26.92608 55.8302759,26.92608 55.8302759,26.9548779 C55.8302759,26.9836759 55.8015203,26.9836759 55.8015203,27.0124738 C55.8015203,27.0412717 55.7727647,27.0412717 55.7727647,27.0700697 C55.7727647,27.0988676 55.744009,27.0988676 55.744009,27.1276656 C55.744009,27.1564635 55.7152534,27.1564635 55.7152534,27.1852615 C55.7152534,27.2140594 55.6864977,27.2140594 55.6864977,27.2428574 C55.6864977,27.2716553 55.6577421,27.2716553 55.6577421,27.3004533 C55.6577421,27.3292512 55.6289864,27.3292512 55.6289864,27.3580492 C55.6289864,27.3868471 55.6002308,27.3868471 55.6002308,27.415645 C55.6002308,27.444443 55.5714752,27.444443 55.5714752,27.4732409 C55.5714752,27.5020389 55.5427195,27.5020389 55.5427195,27.5308368 C55.5427195,27.5596348 55.5139639,27.5596348 55.5139639,27.5884327 C55.5139639,27.6172307 55.4852082,27.6172307 55.4852082,27.6460286 C55.4852082,27.6748266 55.4564526,27.6748266 55.4564526,27.7036245 C55.4564526,27.7324225 55.427697,27.7324225 55.427697,27.7612204 C55.427697,27.7900184 55.3989413,27.7900184 55.3989413,27.8188163 C55.3989413,27.8476142 55.3701857,27.8476142 55.3701857,27.8764122 C55.3701857,27.9052101 55.34143,27.9052101 55.34143,27.9340081 C55.34143,27.962806 55.3126744,27.962806 55.3126744,27.991604 C55.3126744,28.0204019 55.2839188,28.0204019 55.2839188,28.0491999 C55.2839188,28.0779978 55.2551631,28.0779978 55.2551631,28.1067958 C55.2551631,28.1355937 55.2264075,28.1355937 55.2264075,28.1643917 C55.2264075,28.1931896 55.1976518,28.1931896 55.1976518,28.2219876 C55.1976518,28.2507855 55.1688962,28.2507855 55.1688962,28.2795834 C55.1688962,28.3083814 55.1401406,28.3083814 55.1401406,28.3371793 C55.1401406,28.3659773 55.1113849,28.3659773 55.1113849,28.3947752 C55.1113849,28.4235732 55.0826293,28.4235732 55.0826293,28.4523711 C55.0826293,28.4811691 55.0538736,28.4811691 55.0538736,28.509967 C55.0538736,28.538765 55.025118,28.538765 55.025118,28.5675629 C55.025118,28.5963609 54.9963624,28.5963609 54.9963624,28.6251588 C54.9963624,28.6539567 54.9676067,28.6539567 54.9676067,28.6827547 C54.9676067,28.7115526 54.9388511,28.7115526 54.9388511,28.7403506 C54.9388511,28.7691485 54.9100954,28.7691485 54.9100954,28.7979465 C54.9100954,28.8267444 54.8813398,28.8267444 54.8813398,28.8555424 C54.3924939,29.6906828 54.4212496,30.7274089 54.9963624,31.735337 L61.8689604,43.6576869 C62.7603852,45.212776 64.77328,46.3934918 66.5561297,46.3934918 L134.41944,46.3934918 C135.569666,46.3934918 136.489846,45.8751287 136.978692,45.0399883 C136.978692,45.0111903 137.007448,44.9823924 137.007448,44.9823924 C137.007448,44.9535945 137.036204,44.9535945 137.036204,44.9247965 C137.036204,44.8959986 137.064959,44.8959986 137.064959,44.8672006 C137.064959,44.8384027 137.093715,44.8384027 137.093715,44.8096047 C137.093715,44.7808068 137.122471,44.7808068 137.122471,44.7520088 C137.122471,44.7232109 137.151226,44.7232109 137.151226,44.6944129 C137.151226,44.665615 137.179982,44.665615 137.179982,44.636817 C137.179982,44.6080191 137.208737,44.6080191 137.208737,44.5792212 C137.208737,44.5504232 137.237493,44.5504232 137.237493,44.5216253 C137.237493,44.4928273 137.266249,44.4928273 137.266249,44.4640294 C137.266249,44.4352314 137.295004,44.4352314 137.295004,44.4064335 C137.295004,44.3776355 137.32376,44.3776355 137.32376,44.3488376 C137.32376,44.3200396 137.352516,44.3200396 137.352516,44.2912417 C137.352516,44.2624437 137.381271,44.2624437 137.381271,44.2336458 C137.381271,44.2048478 137.410027,44.2048478 137.410027,44.1760499 C137.410027,44.147252 137.438783,44.147252 137.438783,44.118454 C137.438783,44.0896561 137.467538,44.0896561 137.467538,44.0608581 C137.467538,44.0320602 137.496294,44.0320602 137.496294,44.0032622 C137.496294,43.9744643 137.52505,43.9744643 137.52505,43.9456663 C137.52505,43.9168684 137.553805,43.9168684 137.553805,43.8880704 C137.553805,43.8592725 137.582561,43.8592725 137.582561,43.8304745 C137.582561,43.8016766 137.611316,43.8016766 137.611316,43.7728787 C137.611316,43.7440807 137.640072,43.7440807 137.640072,43.7152828 C137.640072,43.6864848 137.668828,43.6864848 137.668828,43.6576869 C137.668828,43.6288889 137.697583,43.6288889 137.697583,43.600091 C137.697583,43.571293 137.726339,43.571293 137.726339,43.5424951 C137.726339,43.5136971 137.755095,43.5136971 137.755095,43.4848992 C137.755095,43.4561012 137.78385,43.4561012 137.78385,43.4273033 C137.78385,43.3985053 137.812606,43.3985053 137.812606,43.3697074 C137.812606,43.3409095 137.841362,43.3409095 137.841362,43.3121115 C137.841362,43.2833136 137.870117,43.2833136 137.870117,43.2545156 C137.870117,43.2257177 137.898873,43.2257177 137.898873,43.1969197 C137.898873,43.1681218 137.927628,43.1681218 137.927628,43.1393238 C137.927628,43.1105259 137.956384,43.1105259 137.956384,43.0817279 C137.956384,43.05293 137.98514,43.05293 137.98514,43.024132 C137.98514,42.9953341 138.013895,42.9953341 138.013895,42.9665361 C138.013895,42.9377382 138.042651,42.9377382 138.042651,42.9089403 C138.042651,42.8801423 138.071407,42.8801423 138.071407,42.8513444 C138.071407,42.8225464 138.100162,42.8225464 138.100162,42.7937485 C138.100162,42.7649505 138.128918,42.7649505 138.128918,42.7361526 C138.128918,42.7073546 138.157674,42.7073546 138.157674,42.6785567 C138.157674,42.6497587 138.186429,42.6497587 138.186429,42.6209608 C138.186429,42.5921628 138.215185,42.5921628 138.215185,42.5633649 C138.215185,42.534567 138.243941,42.534567 138.243941,42.505769 C138.243941,42.4769711 138.272696,42.4769711 138.272696,42.4481731 C138.272696,42.4193752 138.301452,42.4193752 138.301452,42.3905772 C138.301452,42.3617793 138.330207,42.3617793 138.330207,42.3329813 C138.330207,42.3041834 138.358963,42.3041834 138.358963,42.2753854 C138.358963,42.2465875 138.387719,42.2465875 138.387719,42.2177895 C138.387719,42.1889916 138.416474,42.1889916 138.416474,42.1601936 C138.416474,42.1313957 138.44523,42.1313957 138.44523,42.1025978 C138.44523,42.0737998 138.473986,42.0737998 138.473986,42.0450019 C138.473986,42.0162039 138.502741,42.0162039 138.502741,41.987406 C138.502741,41.958608 138.531497,41.958608 138.531497,41.9298101 C138.531497,41.9010121 138.560253,41.9010121 138.560253,41.8722142 C138.560253,41.8434162 138.589008,41.8434162 138.589008,41.8146183 C138.589008,41.7858203 138.617764,41.7858203 138.617764,41.7570224 C138.617764,41.7282245 138.646519,41.7282245 138.646519,41.6994265 C138.646519,41.6706286 138.675275,41.6706286 138.675275,41.6418306 C138.675275,41.6130327 138.704031,41.6130327 138.704031,41.5842347 C138.704031,41.5554368 138.732786,41.5554368 138.732786,41.5266388 C138.732786,41.4978409 138.761542,41.4978409 138.761542,41.4690429 C138.761542,41.440245 138.790298,41.440245 138.790298,41.411447 C138.790298,41.3826491 138.819053,41.3826491 138.819053,41.3538511 C138.819053,41.3250532 138.847809,41.3250532 138.847809,41.2962553 C138.847809,41.2674573 138.876565,41.2674573 138.876565,41.2386594 C138.876565,41.2098614 138.90532,41.2098614 138.90532,41.1810635 C138.90532,41.1522655 138.934076,41.1522655 138.934076,41.1234676 C138.934076,41.0946696 138.962832,41.0946696 138.962832,41.0658717 C138.962832,41.0370737 138.991587,41.0370737 138.991587,41.0082758 C138.991587,40.9794778 139.020343,40.9794778 139.020343,40.9506799 C139.020343,40.9218819 139.049098,40.9218819 139.049098,40.893084 C139.049098,40.8642861 139.077854,40.8642861 139.077854,40.8354881 C139.077854,40.8066902 139.10661,40.8066902 139.10661,40.7778922 C139.10661,40.7490943 139.135365,40.7490943 139.135365,40.7202963 C139.135365,40.6914984 139.164121,40.6914984 139.164121,40.6627004 C139.164121,40.6339025 139.192877,40.6339025 139.192877,40.6051045 C139.192877,40.5763066 139.221632,40.5763066 139.221632,40.5475086 C139.221632,40.5187107 139.250388,40.5187107 139.250388,40.4899128 C139.250388,40.4611148 139.279144,40.4611148 139.279144,40.4323169 C139.279144,40.4035189 139.307899,40.4035189 139.307899,40.374721 C139.307899,40.345923 139.336655,40.345923 139.336655,40.3171251 C139.336655,40.2883271 139.36541,40.2883271 139.36541,40.2595292 C139.36541,40.2307312 139.394166,40.2307312 139.394166,40.2019333 C139.394166,40.1731353 139.422922,40.1731353 139.422922,40.1443374 C139.422922,40.1155394 139.451677,40.1155394 139.451677,40.0867415 C139.451677,40.0579436 139.480433,40.0579436 139.480433,40.0291456 C139.480433,40.0003477 139.509189,40.0003477 139.509189,39.9715497 C139.509189,39.9427518 139.537944,39.9427518 139.537944,39.9139538 C139.537944,39.8851559 139.5667,39.8851559 139.5667,39.8563579 C139.5667,39.82756 139.595456,39.82756 139.595456,39.798762 C139.595456,39.7699641 139.624211,39.7699641 139.624211,39.7411661 C139.624211,39.7123682 139.652967,39.7123682 139.652967,39.6835703 C139.652967,39.6547723 139.681723,39.6547723 139.681723,39.6259744 C139.681723,39.5971764 139.710478,39.5971764 139.710478,39.5683785 C139.710478,39.5395805 139.739234,39.5395805 139.739234,39.5107826 C139.739234,39.4819846 139.767989,39.4819846 139.767989,39.4531867 C139.767989,39.4243887 139.796745,39.4243887 139.796745,39.3955908 C139.796745,39.3667928 139.825501,39.3667928 139.825501,39.3379949 C140.314347,38.5028544 140.285591,37.4661284 139.710478,36.4582002 L132.83788,24.5934463 C131.946455,23.0383572 129.876049,21.9728332 128.150711,21.9728332 L60.2874001,21.9728332 Z" id="Shape" fill="#000000"></path>
                    <path d="M60.3161558,23.2399428 L128.179466,23.2399428 C129.444715,23.2399428 130.997519,24.1326792 131.630143,25.2270011 L138.502741,37.120553 C139.135365,38.214875 138.617764,39.1076113 137.352516,39.1076113 L69.489205,39.1076113 C68.2239568,39.1076113 66.6711523,38.214875 66.0385282,37.120553 L59.1659302,25.2270011 C58.5333061,24.1326792 59.0509076,23.2399428 60.3161558,23.2399428 Z" id="XMLID_2428_" fill="#FFFFFF"></path>
                    <path d="M52.2358209,23.153549 L52.2358209,24.5934463 L52.2358209,24.5934463 L52.2358209,23.153549 Z M38.4331137,23.153549 L38.404358,24.5934463 C38.404358,24.5934463 38.404358,24.5934463 38.404358,24.5934463 L38.4331137,23.153549 Z M55.6864977,25.1406073 L54.4500052,25.8605559 L54.4500052,25.8605559 L55.6864977,25.1406073 Z M62.5590957,37.0053612 L63.7955882,36.2854126 L63.7955882,36.2854126 L62.5590957,37.0053612 Z M62.6741183,38.4452586 L61.4663814,37.667714 C61.4663814,37.6965119 61.4376258,37.6965119 61.4376258,37.7253099 L62.6741183,38.4452586 Z M59.8273099,43.3697074 L58.5908174,42.6497587 C58.5908174,42.6785567 58.5620617,42.6785567 58.5620617,42.7073546 L59.8273099,43.3697074 Z M58.5333061,44.0032622 L58.5333061,45.4431595 L58.5333061,45.4431595 L58.5333061,44.0032622 Z M44.7018432,44.0032622 L44.7018432,42.5633649 L44.7018432,42.5633649 L44.7018432,44.0032622 Z M41.279922,42.0162039 L42.5164146,41.2962553 L42.5164146,41.2962553 L41.279922,42.0162039 Z M34.4360797,30.0938541 L35.6725722,29.3739054 C35.6725722,29.3739054 35.6438166,29.3451075 35.6438166,29.3451075 L34.4360797,30.0938541 Z M34.2923015,28.6539567 L35.5000384,29.4602992 C35.7300835,29.1435218 35.7875948,28.7115526 35.7013278,28.3371793 C35.6150609,27.962806 35.3562602,27.6172307 35.0111925,27.415645 L34.2923015,28.6539567 Z M34.2923015,28.6539567 L33.055809,27.9340081 C32.65323,28.6251588 32.8832751,29.4890972 33.5734105,29.8922684 L34.2923015,28.6539567 Z M37.1391098,23.671912 L37.8580008,22.4336003 C37.5416887,22.2320147 37.1391098,22.2032167 36.7652864,22.2896106 C36.3914631,22.3760044 36.0751511,22.6351859 35.9026172,22.9519633 L37.1391098,23.671912 Z M37.1678655,23.671912 L36.4489745,24.9102237 C37.1103542,25.284597 37.9442678,25.0830114 38.3756024,24.4494566 L37.1678655,23.671912 Z M52.2358209,21.7136516 L38.4331137,21.7136516 L38.4331137,24.5934463 L52.2358209,24.5934463 L52.2358209,21.7136516 Z M56.9229903,24.4206586 C56.4629,23.6143161 55.6864977,22.9519633 54.9100954,22.4911962 C54.1336932,22.0304291 53.184757,21.7136516 52.2358209,21.7136516 L52.2358209,24.5934463 C52.552133,24.5934463 53.0122232,24.7086381 53.4723134,24.9966175 C53.9324037,25.2557991 54.2774714,25.6013744 54.4212496,25.8605559 L56.9229903,24.4206586 Z M63.7955882,36.2854126 L56.9229903,24.3918607 L54.4212496,25.831758 L61.2938476,37.7253099 L63.7955882,36.2854126 Z M63.8818552,39.2228031 C64.4857236,38.2436729 64.2844341,37.149351 63.7955882,36.2854126 L61.2938476,37.7253099 C61.3801145,37.8692996 61.3801145,37.9268955 61.3801145,37.8980976 C61.3801145,37.8980976 61.3801145,37.8692996 61.3801145,37.8117037 C61.3801145,37.7541078 61.4088701,37.7253099 61.4376258,37.667714 L63.8818552,39.2228031 Z M61.0638024,44.0896561 L63.9106108,39.1652072 L61.4088701,37.7253099 L58.5620617,42.6497587 L61.0638024,44.0896561 Z M58.5620617,42.7073546 C58.5908174,42.6497587 58.619573,42.6209608 58.6483287,42.5921628 C58.6770843,42.5633649 58.7058399,42.534567 58.7058399,42.534567 C58.7345956,42.534567 58.6770843,42.5633649 58.5045505,42.5633649 L58.5045505,45.4431595 C59.4822422,45.4431595 60.5462009,45.0687862 61.0638024,44.0608581 L58.5620617,42.7073546 Z M58.5333061,42.5633649 L44.7305988,42.5633649 L44.7305988,45.4431595 L58.5333061,45.4431595 L58.5333061,42.5633649 Z M44.9893996,42.5633649 C44.6730876,42.5633649 43.9254409,42.4481731 43.4653507,42.1601936 C43.0052604,41.9010121 42.6601928,41.5554368 42.5164146,41.2962553 L40.0146739,42.7361526 C40.4747641,43.5424951 41.2511664,44.2048478 42.0275687,44.665615 C42.803971,45.1263821 44.0404635,45.4431595 44.9893996,45.4431595 L44.9893996,42.5633649 Z M42.5164146,41.2962553 L35.6725722,29.4027034 L33.1708315,30.8426007 L40.0146739,42.7361526 L42.5164146,41.2962553 Z M35.7143951,29.4602992 C35.6281281,29.3163095 35.5575496,29.1435218 35.5575496,29.1723198 C35.5575496,29.2011177 35.5575496,29.2299157 35.5575496,29.2875116 C35.5575496,29.3451075 35.528794,29.4027034 35.5000384,29.4602992 L33.0845646,27.8764122 C32.4231849,28.8843403 32.6641541,30.0239904 33.1817556,30.8591309 L35.7143951,29.4602992 Z M33.5734105,29.8922684 L33.5734105,29.8922684 L35.0111925,27.3868471 L35.0111925,27.3868471 L33.5734105,29.8922684 Z M35.9026173,22.9519633 L33.0270533,27.9340081 L35.528794,29.3739054 L38.404358,24.3918607 L35.9026173,22.9519633 Z M37.8867565,22.4336003 L37.8867565,22.4336003 L36.4489745,24.9390217 L36.4489745,24.9390217 L37.8867565,22.4336003 Z M38.4618693,21.7136516 C37.5704445,21.7136516 36.563997,22.0016311 35.9601286,22.8943675 L38.3756024,24.4782545 C38.3468467,24.5358504 38.3180911,24.5646483 38.2893355,24.5934463 C38.2605798,24.6222442 38.2318242,24.6222442 38.2318242,24.6222442 C38.2318242,24.6222442 38.2893355,24.5934463 38.4331137,24.5934463 L38.4618693,21.7136516 Z" id="Shape" fill="#000000"></path>
                    <path d="M38.4331137,23.153549 L52.2358209,23.153549 C53.5010691,23.153549 55.0538736,24.0462853 55.6864977,25.1406073 L62.5590957,37.0341592 C62.8754078,37.6101181 62.9041634,38.0996832 62.6741183,38.4740565 L59.8273099,43.3985053 C59.6260204,43.7728787 59.1659302,44.0032622 58.5333061,44.0032622 L44.7305988,44.0032622 C43.4653507,44.0032622 41.9125461,43.1105259 41.279922,42.0162039 L34.4360797,30.122652 C34.091012,29.5466931 34.0622564,29.0283301 34.2923015,28.6827547 L34.2923015,28.6827547 L37.1678655,23.70071 L37.1678655,23.70071 C37.369155,23.3263366 37.8292452,23.124751 38.4331137,23.153549 Z" id="Path" fill="#E1F2FC"></path>
                    <path d="M27.5922373,4.29089403 L41.3949446,4.29089403 C42.6601928,4.29089403 44.2129973,5.18363037 44.8456214,6.27795233 L51.6894638,18.1715042 C52.3220878,19.2658262 51.8044863,20.1585625 50.5392381,20.1585625 L36.7365309,20.1585625 C35.4712827,20.1585625 33.9184782,19.2658262 33.2858541,18.1715042 L26.4420117,6.27795233 C25.780632,5.18363037 26.2694779,4.31969197 27.5922373,4.29089403 Z" id="Path" fill="#FFFFFF"></path>
                    <path d="M71.2720547,4.29089403 L85.0747619,4.29089403 C86.3400101,4.29089403 87.8928147,5.18363037 88.5254388,6.27795233 L95.3692811,18.1715042 C96.0019052,19.2658262 95.4843037,20.1585625 94.2190555,20.1585625 L80.4163482,20.1585625 C79.1511001,20.1585625 77.5982955,19.2658262 76.9656714,18.1715042 L70.1218291,6.27795233 C69.489205,5.18363037 70.0068065,4.31969197 71.2720547,4.29089403 Z" id="Path" fill="#FFFFFF"></path>
                    <path d="M114.980628,4.29089403 L128.783335,4.29089403 C130.048583,4.29089403 131.601388,5.18363037 132.234012,6.27795233 L139.077854,18.1715042 C139.710478,19.2658262 139.192877,20.1585625 137.927628,20.1585625 L124.124921,20.1585625 C122.859673,20.1585625 121.306868,19.2658262 120.674244,18.1715042 L113.830402,6.27795233 C113.197778,5.18363037 113.71538,4.31969197 114.980628,4.29089403 Z" id="Path" fill="#FFFFFF"></path>
                    <path d="M49.4465238,4.29089403 L63.2492311,4.29089403 C64.5144792,4.29089403 66.0672838,5.18363037 66.6999079,6.27795233 L73.5437502,18.1715042 C74.1763743,19.2658262 73.6587728,20.1585625 72.3935246,20.1585625 L58.5908174,20.1585625 C57.3255692,20.1585625 55.7727647,19.2658262 55.1401406,18.1715042 L48.2962982,6.27795233 C47.6349185,5.18363037 48.1237644,4.31969197 49.4465238,4.29089403 Z" id="Path" fill="#FFFFFF"></path>
                    <path d="M93.1263412,4.29089403 L106.929048,4.29089403 C108.194297,4.29089403 109.747101,5.18363037 110.379725,6.27795233 L117.223568,18.1715042 C117.856192,19.2658262 117.33859,20.1585625 116.073342,20.1585625 L102.270635,20.1585625 C101.005387,20.1585625 99.452582,19.2658262 98.8199579,18.1715042 L91.9761156,6.27795233 C91.3434915,5.18363037 91.861093,4.31969197 93.1263412,4.29089403 Z" id="Path" fill="#FFFFFF"></path>
                    <path d="M154.088298,6.27795233 C153.455674,5.18363037 151.90287,4.29089403 150.637621,4.29089403 L136.834914,4.29089403 C135.569666,4.29089403 135.052064,5.18363037 135.684689,6.27795233 L144.253869,21.1376927 C144.886493,22.2320147 144.368892,23.124751 143.103644,23.124751 L136.20229,23.124751 C134.937042,23.124751 134.41944,24.0174874 135.052064,25.1118093 L141.924662,37.0053612 C142.557287,38.0996832 144.110091,38.9924195 145.375339,38.9924195 L154.577144,38.9924195 L170.680303,38.9924195 C171.945551,38.9924195 172.463152,38.0996832 171.830528,37.0053612 L163.778949,23.124751 L154.088298,6.27795233 Z" id="Path" fill="#FFFFFF"></path>
                    <path d="M38.4331137,23.153549 L52.2358209,23.153549 C53.5010691,23.153549 55.0538736,24.0462853 55.6864977,25.1406073 L62.5590957,37.0341592 C63.1917198,38.1284811 62.6741183,39.0212175 61.4088701,39.0212175 L47.6061629,39.0212175 C46.3409147,39.0212175 44.7881101,38.1284811 44.155486,37.0341592 L37.3116437,25.1406073 C36.6215083,24.0174874 37.1391098,23.124751 38.4331137,23.153549 Z" id="Path" fill="#FFFFFF"></path>
                </g>
                <g id="smash_text" transform="translate(69.354599, 23.817119)" fill="#000000" fill-rule="nonzero">
                    <path d="M5.2261486,11.6136519 C4.41319215,11.4975153 3.71637234,11.265242 3.13568916,10.9168321 L3.01955252,9.40705587 C3.6002357,9.63932914 4.18091888,9.87160241 4.87773869,9.98773905 C5.57455851,10.1038757 6.15524169,10.2200123 6.73592486,10.2200123 C7.43274468,10.2200123 7.78115458,10.1038757 8.01342785,9.98773905 C8.24570113,9.87160241 8.24570113,9.75546577 8.12956449,9.40705587 C8.01342785,9.29091923 7.78115458,9.05864596 7.54888131,8.94250933 C7.31660804,8.82637269 6.96819813,8.71023605 6.61978823,8.59409942 C6.27137832,8.59409942 5.92296841,8.47796278 5.34228524,8.36182615 C4.52932879,8.24568951 3.83250897,8.01341624 3.2518258,7.8972796 C2.67114262,7.78114297 2.09045944,7.5488697 1.6259129,7.20045979 C1.04522972,6.85204988 0.696819813,6.38750334 0.348409907,5.80682016 C0,5.34227362 0,4.87772708 0,4.52931717 C0.116136636,4.18090727 0.348409907,3.83249736 0.812956449,3.60022409 C1.27750299,3.36795082 1.9743228,3.25181418 2.90341589,3.25181418 C3.48409907,3.25181418 4.18091888,3.36795082 4.87773869,3.48408745 C5.57455851,3.60022409 6.15524169,3.83249736 6.73592486,4.06477063 L6.8520615,5.57454689 C5.69069514,5.11000035 4.64546542,4.87772708 3.71637234,4.87772708 C3.13568916,4.87772708 2.67114262,4.99386372 2.43886935,5.11000035 C2.20659608,5.22613699 2.32273271,5.45841026 2.55500598,5.69068353 C2.67114262,5.9229568 3.01955252,6.15523007 3.48409907,6.38750334 C3.94864561,6.50363998 4.52932879,6.61977661 5.34228524,6.85204988 C6.03910505,6.96818652 6.73592486,7.08432316 7.31660804,7.20045979 C7.89729122,7.31659643 8.4779744,7.5488697 8.94252094,7.8972796 C9.52320412,8.24568951 9.87161402,8.71023605 10.2200239,9.29091923 C10.4522972,9.75546577 10.5684338,10.2200123 10.5684338,10.5684222 C10.5684338,10.9168321 10.2200239,11.265242 9.63934075,11.4975153 C9.17479421,11.7298002 8.4779744,11.8459368 7.54888131,11.8459368 C6.8520615,11.8459368 6.03910505,11.8459368 5.2261486,11.6136519 Z" id="Path"></path>
                    <path d="M24.0402836,4.06477063 C24.9693766,4.64545381 25.7823331,5.45841026 26.4791529,6.61977661 L29.4987054,11.7298002 L27.2921094,11.7298002 L24.3886935,6.61977661 C24.0402836,6.03909344 23.575737,5.57454689 23.1111905,5.22613699 C22.5305073,4.87772708 22.0659608,4.76159044 21.4852776,4.76159044 C20.7884578,4.76159044 20.4400479,4.87772708 20.2077746,5.22613699 C19.9755013,5.57454689 20.091638,6.03909344 20.4400479,6.61977661 L23.3434637,11.6136519 L21.1368677,11.6136519 L18.2334518,6.50363998 C17.8850419,5.9229568 17.4204953,5.45841026 16.9559488,5.11000035 C16.4914023,4.76159044 15.9107191,4.64545381 15.3300359,4.64545381 C14.7493527,4.64545381 14.2848062,4.76159044 14.0525329,5.11000035 C13.8202596,5.45841026 13.9363963,5.9229568 14.2848062,6.50363998 L17.1882221,11.4975153 L14.981626,11.4975153 L9.75550062,3.36795082 L11.9620735,3.36795082 L12.5427566,4.41318054 C12.6588933,4.06477063 12.8911665,3.71636072 13.2395765,3.60022409 C13.5879864,3.48408745 14.1686695,3.25181418 14.7493527,3.25181418 C15.4461725,3.25181418 16.0268557,3.36795082 16.7236755,3.60022409 C17.3043587,3.83249736 17.8850419,4.06477063 18.4657251,4.52931717 C18.5818617,4.18090727 18.814135,3.83249736 19.2786815,3.60022409 C19.743228,3.36795082 20.2077746,3.25181418 20.9045944,3.25181418 C21.9498241,3.25181418 22.9950538,3.48408745 24.0402836,4.06477063 Z" id="Path"></path>
                    <path d="M35.0732639,3.71636072 C35.8862204,4.06477063 36.6991768,4.41318054 37.3959967,5.11000035 C38.0928165,5.69068353 38.6734996,6.38750334 39.1380462,7.20045979 L41.8091888,11.8459368 L39.6025927,11.8459368 L38.4412264,9.87160241 L34.0280342,9.87160241 L35.1894006,11.8459368 L32.9828045,11.8459368 L30.3116619,7.20045979 C29.8471153,6.38750334 29.6148421,5.69068353 29.6148421,5.11000035 C29.6148421,4.52931717 29.963252,4.06477063 30.4277985,3.71636072 C30.8923451,3.36795082 31.5891649,3.25181418 32.518258,3.25181418 C33.3312144,3.25181418 34.2603075,3.36795082 35.0732639,3.71636072 Z M37.5121333,8.12955288 L36.8153135,6.96818652 C36.4669036,6.27136671 36.002357,5.80682016 35.3055372,5.34227362 C34.724854,4.99386372 34.0280342,4.76159044 33.3312144,4.76159044 C32.6343946,4.76159044 32.1698481,4.99386372 32.0537114,5.34227362 C31.9375748,5.69068353 32.0537114,6.27136671 32.4021213,6.96818652 L33.0989411,8.12955288 L37.5121333,8.12955288 Z" id="Shape"></path>
                    <path d="M46.4546542,11.6136519 C45.6416978,11.3813787 44.944878,11.1491054 44.3641948,10.9168321 L44.1319215,9.40705587 C44.7126047,9.63932914 45.2932879,9.87160241 45.9901077,9.98773905 C46.6869275,10.1038757 47.2676107,10.2200123 47.8482939,10.2200123 C48.5451137,10.2200123 48.8935236,10.1038757 49.1257968,9.98773905 C49.3580701,9.87160241 49.3580701,9.63932914 49.2419335,9.29091923 C49.1257968,9.05864596 48.8935236,8.94250933 48.6612503,8.82637269 C48.428977,8.71023605 48.0805671,8.59409942 47.7321572,8.47796278 C47.3837473,8.36182615 46.9192008,8.36182615 46.4546542,8.24568951 C45.6416978,8.12955288 44.944878,7.8972796 44.3641948,7.78114297 C43.7835116,7.66500633 43.2028284,7.43273306 42.7382819,7.08432316 C42.2737353,6.85204988 41.8091888,6.38750334 41.4607789,5.80682016 C41.2285056,5.34227362 41.112369,4.87772708 41.112369,4.52931717 C41.112369,4.18090727 41.4607789,3.83249736 41.9253254,3.60022409 C42.389872,3.36795082 43.0866918,3.25181418 44.0157849,3.25181418 C44.5964681,3.25181418 45.2932879,3.36795082 45.9901077,3.48408745 C46.6869275,3.60022409 47.2676107,3.83249736 47.8482939,4.06477063 L47.9644305,5.57454689 C46.8030641,5.11000035 45.7578344,4.87772708 44.8287413,4.87772708 C44.2480582,4.87772708 43.7835116,4.99386372 43.5512383,5.11000035 C43.3189651,5.22613699 43.3189651,5.57454689 43.5512383,5.80682016 C43.667375,6.03909344 44.0157849,6.27136671 44.4803314,6.50363998 C44.944878,6.61977661 45.5255611,6.73591325 46.3385176,6.96818652 C47.151474,7.08432316 47.8482939,7.31659643 48.428977,7.43273306 C49.0096602,7.5488697 49.5903434,7.78114297 50.0548899,8.12955288 C50.6355731,8.24568951 51.1001197,8.71023605 51.4485296,9.29091923 C51.6808028,9.75546577 51.7969395,10.2200123 51.7969395,10.5684222 C51.6808028,10.9168321 51.4485296,11.265242 50.983983,11.4975153 C50.5194365,11.7298002 49.8226167,11.8459368 48.8935236,11.8459368 C47.9644305,11.8459368 47.2676107,11.8459368 46.4546542,11.6136519 Z" id="Path"></path>
                    <polygon id="Path" points="59.926504 3.36795082 64.8042426 11.7298002 62.5977627 11.7298002 60.6234399 8.24568951 56.2102478 8.24568951 58.1844544 11.7298002 55.7455851 11.7298002 50.8678464 3.36795082 53.0745586 3.36795082 54.9326286 6.73591325 59.3458208 6.73591325 57.4876346 3.36795082"></polygon>
                    <path d="M81.6440548,4.29705552 L80.5988251,6.03910505 L92.4447619,6.03910505 C92.7931718,6.03910505 93.1415817,5.92296841 93.2577184,5.69069514 C93.373855,5.45842187 93.373855,5.11001197 93.1415817,4.76160206 L90.818849,0.812956449 C90.7027124,0.580683178 90.7027124,0.464546542 90.818849,0.232273271 C90.9349857,0.116136636 91.0511223,0 91.2833956,0 C91.5156688,0 91.7479421,0.116136636 91.9802154,0.232273271 C92.2124886,0.348409907 92.4447619,0.580683178 92.5608985,0.812956449 L94.8836313,4.76160206 C95.3481778,5.45842187 95.3481778,6.15524169 95.1159045,6.73592486 C94.7674946,7.20047141 94.1868114,7.54888131 93.373855,7.54888131 L81.4117815,7.54888131 L84.4313341,9.29093085 C84.5474707,9.29093085 84.6636073,9.40706748 84.779744,9.40706748 C84.8958806,9.52320412 85.0120172,9.63934075 85.0120172,9.63934075 C85.0120172,9.75547739 85.1281539,9.87161402 85.1281539,9.87161402 L85.1281539,10.1038873 C85.1281539,10.2200239 85.0120172,10.2200239 84.8958806,10.2200239 C84.779744,10.2200239 84.6636073,10.2200239 84.5474707,10.2200239 C84.4313341,10.2200239 84.3151974,10.2200239 84.1990608,10.2200239 C84.0829242,10.2200239 83.9667875,10.1038873 83.8506509,10.1038873 L78.6245023,7.08433477 C78.5083656,6.96819813 78.392229,6.96819813 78.2760924,6.8520615 C78.0438191,6.61978823 77.9276825,6.50365159 77.9276825,6.27137832 C77.9276825,6.15524169 77.9276825,6.03910505 77.9276825,6.03910505 L79.669732,3.01955252 C79.7858686,2.90341589 79.9020053,2.78727925 80.1342785,2.78727925 C80.3665518,2.78727925 80.5988251,2.90341589 80.8310984,3.01955252 C81.0633716,3.13568916 81.2956449,3.36796243 81.4117815,3.6002357 C81.6440548,3.94864561 81.6440548,4.18091888 81.6440548,4.29705552 Z" id="Path"></path>
                </g>
            </g>
        </g>
    </g>
</svg>